<svg xmlns="http://www.w3.org/2000/svg" xmlns:xlink="http://www.w3.org/1999/xlink" width="500" zoomAndPan="magnify" viewBox="0 0 375 112.499997" height="150" preserveAspectRatio="xMidYMid meet" version="1.0"><defs><g/><clipPath id="9a42e8db25"><path d="M 23.714844 9.195312 L 108.757812 9.195312 L 108.757812 102.53125 L 23.714844 102.53125 Z M 23.714844 9.195312 " clip-rule="nonzero"/></clipPath></defs><g clip-path="url(#9a42e8db25)"><path fill="#6f3fcf" d="M 26.3125 38.804688 L 35.007812 43.8125 L 35.007812 68.125 L 26.3125 73.128906 Z M 25.394531 76.613281 C 25.472656 76.589844 25.542969 76.5625 25.613281 76.523438 C 25.632812 76.515625 25.644531 76.511719 25.660156 76.503906 L 36.957031 70 C 36.96875 69.992188 36.976562 69.980469 36.992188 69.972656 C 37.027344 69.949219 37.066406 69.921875 37.101562 69.894531 C 37.136719 69.867188 37.167969 69.84375 37.195312 69.816406 C 37.226562 69.789062 37.253906 69.757812 37.28125 69.726562 C 37.308594 69.691406 37.335938 69.664062 37.363281 69.625 C 37.386719 69.59375 37.40625 69.558594 37.429688 69.519531 C 37.449219 69.484375 37.46875 69.449219 37.484375 69.414062 C 37.503906 69.371094 37.515625 69.332031 37.53125 69.292969 C 37.542969 69.253906 37.558594 69.214844 37.566406 69.175781 C 37.578125 69.136719 37.582031 69.097656 37.585938 69.054688 C 37.59375 69.007812 37.601562 68.964844 37.601562 68.917969 C 37.601562 68.902344 37.605469 68.886719 37.605469 68.871094 L 37.605469 43.0625 C 37.605469 43.046875 37.601562 43.035156 37.601562 43.019531 C 37.601562 42.972656 37.59375 42.925781 37.585938 42.882812 C 37.582031 42.839844 37.578125 42.800781 37.566406 42.761719 C 37.558594 42.722656 37.542969 42.683594 37.53125 42.644531 C 37.515625 42.601562 37.503906 42.5625 37.484375 42.523438 C 37.46875 42.484375 37.449219 42.449219 37.429688 42.417969 C 37.40625 42.378906 37.386719 42.34375 37.363281 42.308594 C 37.339844 42.273438 37.308594 42.246094 37.28125 42.210938 C 37.253906 42.179688 37.226562 42.148438 37.195312 42.121094 C 37.167969 42.09375 37.136719 42.070312 37.105469 42.042969 C 37.066406 42.015625 37.027344 41.984375 36.988281 41.960938 C 36.976562 41.953125 36.96875 41.945312 36.957031 41.9375 L 25.660156 35.433594 C 25.640625 35.421875 25.617188 35.417969 25.597656 35.402344 C 25.554688 35.382812 25.511719 35.363281 25.464844 35.34375 C 25.429688 35.332031 25.390625 35.320312 25.347656 35.308594 C 25.308594 35.296875 25.269531 35.285156 25.226562 35.28125 C 25.179688 35.273438 25.132812 35.269531 25.085938 35.265625 C 25.0625 35.265625 25.039062 35.257812 25.015625 35.257812 C 25 35.257812 24.984375 35.265625 24.96875 35.265625 C 24.921875 35.265625 24.878906 35.273438 24.832031 35.277344 C 24.792969 35.285156 24.753906 35.289062 24.710938 35.296875 C 24.671875 35.308594 24.632812 35.320312 24.59375 35.335938 C 24.554688 35.347656 24.511719 35.363281 24.472656 35.378906 C 24.4375 35.394531 24.402344 35.417969 24.367188 35.4375 C 24.332031 35.460938 24.292969 35.480469 24.257812 35.503906 C 24.226562 35.527344 24.195312 35.554688 24.164062 35.585938 C 24.128906 35.613281 24.101562 35.640625 24.070312 35.671875 C 24.042969 35.699219 24.019531 35.730469 23.996094 35.761719 C 23.964844 35.796875 23.9375 35.835938 23.910156 35.875 C 23.902344 35.890625 23.894531 35.898438 23.886719 35.910156 C 23.875 35.933594 23.867188 35.953125 23.859375 35.976562 C 23.835938 36.019531 23.816406 36.0625 23.800781 36.105469 C 23.785156 36.144531 23.773438 36.183594 23.765625 36.222656 C 23.75 36.265625 23.742188 36.304688 23.734375 36.347656 C 23.730469 36.394531 23.722656 36.441406 23.722656 36.484375 C 23.71875 36.511719 23.714844 36.535156 23.714844 36.558594 L 23.714844 75.378906 C 23.714844 75.402344 23.71875 75.425781 23.722656 75.449219 C 23.722656 75.496094 23.726562 75.542969 23.734375 75.589844 C 23.742188 75.632812 23.75 75.667969 23.761719 75.710938 C 23.773438 75.75 23.785156 75.792969 23.800781 75.832031 C 23.816406 75.875 23.835938 75.917969 23.855469 75.960938 C 23.867188 75.980469 23.875 76.003906 23.886719 76.023438 C 23.894531 76.035156 23.902344 76.042969 23.910156 76.054688 C 23.960938 76.140625 24.023438 76.226562 24.101562 76.300781 C 24.105469 76.308594 24.113281 76.3125 24.121094 76.320312 C 24.191406 76.382812 24.261719 76.4375 24.339844 76.484375 C 24.367188 76.5 24.394531 76.511719 24.417969 76.527344 C 24.488281 76.5625 24.558594 76.589844 24.632812 76.613281 C 24.660156 76.621094 24.683594 76.628906 24.710938 76.636719 C 24.808594 76.660156 24.90625 76.679688 25.015625 76.679688 C 25.015625 76.679688 25.015625 76.675781 25.015625 76.675781 C 25.015625 76.675781 25.015625 76.679688 25.015625 76.679688 C 25.015625 76.679688 25.019531 76.675781 25.019531 76.675781 C 25.121094 76.675781 25.21875 76.660156 25.316406 76.636719 C 25.34375 76.632812 25.371094 76.621094 25.394531 76.613281 Z M 97.472656 44.050781 L 106.167969 39.046875 L 106.167969 72.898438 L 97.472656 67.890625 Z M 108.71875 75.480469 C 108.726562 75.4375 108.738281 75.402344 108.746094 75.359375 C 108.753906 75.3125 108.753906 75.265625 108.757812 75.21875 C 108.761719 75.191406 108.765625 75.167969 108.765625 75.148438 L 108.765625 36.796875 C 108.765625 36.773438 108.761719 36.75 108.757812 36.722656 C 108.753906 36.679688 108.753906 36.628906 108.746094 36.585938 C 108.738281 36.542969 108.726562 36.503906 108.71875 36.460938 C 108.707031 36.421875 108.695312 36.382812 108.679688 36.34375 C 108.664062 36.300781 108.644531 36.257812 108.625 36.214844 C 108.609375 36.195312 108.605469 36.171875 108.59375 36.148438 C 108.585938 36.136719 108.574219 36.125 108.566406 36.113281 C 108.542969 36.074219 108.515625 36.035156 108.484375 36 C 108.460938 35.96875 108.4375 35.9375 108.410156 35.90625 C 108.378906 35.875 108.347656 35.851562 108.316406 35.824219 C 108.285156 35.792969 108.253906 35.765625 108.21875 35.742188 C 108.1875 35.71875 108.148438 35.699219 108.113281 35.675781 C 108.078125 35.65625 108.042969 35.636719 108.007812 35.617188 C 107.964844 35.597656 107.925781 35.585938 107.882812 35.574219 C 107.847656 35.558594 107.804688 35.546875 107.765625 35.535156 C 107.726562 35.527344 107.6875 35.519531 107.648438 35.515625 C 107.601562 35.511719 107.558594 35.503906 107.507812 35.503906 C 107.496094 35.5 107.480469 35.496094 107.464844 35.496094 C 107.441406 35.496094 107.417969 35.503906 107.394531 35.503906 C 107.347656 35.507812 107.300781 35.511719 107.253906 35.519531 C 107.210938 35.527344 107.171875 35.535156 107.128906 35.546875 C 107.09375 35.554688 107.050781 35.570312 107.011719 35.585938 C 106.96875 35.597656 106.925781 35.621094 106.882812 35.640625 C 106.859375 35.652344 106.839844 35.660156 106.816406 35.671875 L 95.523438 42.175781 C 95.511719 42.183594 95.5 42.191406 95.492188 42.199219 C 95.449219 42.222656 95.410156 42.253906 95.375 42.28125 C 95.34375 42.308594 95.3125 42.332031 95.28125 42.359375 C 95.253906 42.386719 95.222656 42.417969 95.195312 42.453125 C 95.171875 42.484375 95.144531 42.511719 95.117188 42.546875 C 95.09375 42.582031 95.070312 42.617188 95.050781 42.65625 C 95.03125 42.691406 95.011719 42.722656 94.992188 42.761719 C 94.976562 42.800781 94.960938 42.839844 94.949219 42.882812 C 94.933594 42.921875 94.921875 42.960938 94.910156 43 C 94.902344 43.039062 94.898438 43.078125 94.890625 43.121094 C 94.882812 43.167969 94.878906 43.210938 94.875 43.257812 C 94.875 43.273438 94.875 43.285156 94.875 43.300781 L 94.875 68.640625 C 94.875 68.65625 94.875 68.671875 94.875 68.683594 C 94.878906 68.734375 94.882812 68.777344 94.890625 68.824219 C 94.898438 68.863281 94.902344 68.902344 94.910156 68.945312 C 94.921875 68.984375 94.933594 69.023438 94.949219 69.058594 C 94.960938 69.101562 94.976562 69.140625 94.992188 69.183594 C 95.011719 69.21875 95.03125 69.253906 95.050781 69.289062 C 95.070312 69.324219 95.09375 69.363281 95.117188 69.394531 C 95.144531 69.429688 95.171875 69.460938 95.199219 69.492188 C 95.226562 69.523438 95.253906 69.554688 95.28125 69.585938 C 95.3125 69.613281 95.34375 69.636719 95.375 69.664062 C 95.414062 69.691406 95.449219 69.71875 95.488281 69.742188 C 95.5 69.75 95.511719 69.761719 95.523438 69.769531 L 106.816406 76.273438 C 106.832031 76.28125 106.851562 76.285156 106.867188 76.292969 C 106.933594 76.328125 107.007812 76.359375 107.085938 76.378906 C 107.109375 76.390625 107.136719 76.402344 107.164062 76.40625 C 107.257812 76.429688 107.359375 76.445312 107.460938 76.445312 C 107.460938 76.445312 107.460938 76.445312 107.464844 76.445312 C 107.570312 76.445312 107.671875 76.429688 107.769531 76.40625 C 107.796875 76.402344 107.820312 76.390625 107.847656 76.382812 C 107.921875 76.359375 107.992188 76.328125 108.058594 76.296875 C 108.085938 76.28125 108.113281 76.269531 108.136719 76.253906 C 108.214844 76.207031 108.289062 76.152344 108.355469 76.089844 C 108.363281 76.082031 108.371094 76.074219 108.382812 76.070312 C 108.457031 75.996094 108.515625 75.910156 108.574219 75.820312 C 108.578125 75.8125 108.585938 75.804688 108.59375 75.792969 C 108.605469 75.773438 108.609375 75.75 108.625 75.726562 C 108.644531 75.683594 108.664062 75.644531 108.679688 75.601562 C 108.695312 75.5625 108.707031 75.519531 108.71875 75.480469 Z M 71.179688 89.210938 L 92.488281 76.910156 L 101.191406 81.921875 L 71.179688 99.25 Z M 105.035156 82.292969 C 105.046875 82.25 105.054688 82.210938 105.0625 82.171875 C 105.070312 82.125 105.082031 82.085938 105.082031 82.046875 C 105.085938 82.003906 105.085938 81.960938 105.085938 81.917969 C 105.085938 81.878906 105.085938 81.835938 105.082031 81.796875 C 105.078125 81.753906 105.070312 81.710938 105.0625 81.667969 C 105.054688 81.628906 105.046875 81.589844 105.035156 81.550781 C 105.023438 81.511719 105.007812 81.472656 104.988281 81.433594 C 104.972656 81.394531 104.957031 81.351562 104.9375 81.3125 C 104.929688 81.300781 104.925781 81.285156 104.917969 81.269531 C 104.90625 81.25 104.886719 81.230469 104.871094 81.210938 C 104.847656 81.171875 104.820312 81.132812 104.792969 81.097656 C 104.765625 81.066406 104.734375 81.035156 104.707031 81.003906 C 104.675781 80.976562 104.648438 80.949219 104.617188 80.921875 C 104.578125 80.890625 104.539062 80.863281 104.503906 80.839844 C 104.480469 80.824219 104.464844 80.804688 104.441406 80.792969 L 93.132812 74.285156 C 93.121094 74.277344 93.113281 74.277344 93.097656 74.269531 C 93.054688 74.246094 93.011719 74.226562 92.960938 74.207031 C 92.929688 74.195312 92.894531 74.179688 92.859375 74.167969 C 92.8125 74.15625 92.769531 74.144531 92.71875 74.140625 C 92.683594 74.132812 92.652344 74.125 92.617188 74.121094 C 92.566406 74.117188 92.515625 74.117188 92.464844 74.117188 C 92.433594 74.117188 92.402344 74.117188 92.367188 74.117188 C 92.320312 74.125 92.269531 74.132812 92.21875 74.144531 C 92.1875 74.152344 92.152344 74.15625 92.121094 74.167969 C 92.078125 74.179688 92.03125 74.195312 91.988281 74.21875 C 91.949219 74.234375 91.914062 74.246094 91.878906 74.265625 C 91.863281 74.273438 91.847656 74.277344 91.835938 74.285156 L 69.230469 87.335938 C 69.21875 87.34375 69.207031 87.351562 69.195312 87.359375 C 69.15625 87.382812 69.117188 87.410156 69.082031 87.4375 C 69.050781 87.464844 69.019531 87.488281 68.988281 87.515625 C 68.960938 87.546875 68.929688 87.578125 68.90625 87.609375 C 68.875 87.640625 68.847656 87.671875 68.824219 87.707031 C 68.800781 87.742188 68.777344 87.777344 68.757812 87.8125 C 68.738281 87.847656 68.714844 87.882812 68.699219 87.921875 C 68.683594 87.960938 68.667969 88 68.65625 88.039062 C 68.640625 88.082031 68.625 88.121094 68.617188 88.160156 C 68.609375 88.199219 68.605469 88.238281 68.597656 88.277344 C 68.589844 88.324219 68.585938 88.371094 68.585938 88.417969 C 68.582031 88.429688 68.582031 88.445312 68.582031 88.460938 L 68.582031 101.5 C 68.582031 101.527344 68.585938 101.550781 68.585938 101.570312 C 68.589844 101.621094 68.59375 101.667969 68.601562 101.714844 C 68.609375 101.753906 68.617188 101.796875 68.628906 101.832031 C 68.640625 101.875 68.652344 101.917969 68.667969 101.957031 C 68.683594 102 68.703125 102.042969 68.722656 102.082031 C 68.734375 102.105469 68.742188 102.128906 68.753906 102.152344 C 68.757812 102.160156 68.769531 102.167969 68.777344 102.179688 C 68.828125 102.265625 68.890625 102.351562 68.964844 102.425781 C 68.972656 102.433594 68.984375 102.4375 68.992188 102.449219 C 69.058594 102.507812 69.132812 102.5625 69.207031 102.609375 C 69.234375 102.621094 69.261719 102.636719 69.285156 102.652344 C 69.355469 102.6875 69.425781 102.714844 69.496094 102.738281 C 69.523438 102.746094 69.550781 102.753906 69.574219 102.761719 C 69.671875 102.785156 69.773438 102.800781 69.878906 102.800781 C 69.882812 102.800781 69.882812 102.800781 69.886719 102.800781 C 69.988281 102.800781 70.085938 102.785156 70.179688 102.761719 C 70.210938 102.753906 70.234375 102.746094 70.265625 102.738281 C 70.335938 102.710938 70.410156 102.683594 70.480469 102.644531 C 70.496094 102.636719 70.511719 102.636719 70.53125 102.625 L 104.441406 83.046875 C 104.53125 82.996094 104.613281 82.933594 104.683594 82.867188 C 104.703125 82.84375 104.71875 82.824219 104.734375 82.804688 C 104.792969 82.742188 104.84375 82.679688 104.886719 82.609375 C 104.898438 82.59375 104.910156 82.582031 104.917969 82.570312 C 104.925781 82.558594 104.929688 82.546875 104.9375 82.53125 C 104.957031 82.488281 104.976562 82.445312 104.992188 82.402344 C 105.007812 82.367188 105.023438 82.328125 105.035156 82.292969 Z M 92.433594 35.058594 L 71.179688 22.785156 L 71.179688 12.746094 L 101.136719 30.046875 Z M 68.597656 23.722656 C 68.605469 23.757812 68.609375 23.800781 68.617188 23.839844 C 68.625 23.878906 68.640625 23.917969 68.65625 23.960938 C 68.667969 23.996094 68.683594 24.039062 68.699219 24.078125 C 68.714844 24.113281 68.738281 24.148438 68.757812 24.1875 C 68.78125 24.222656 68.800781 24.257812 68.824219 24.289062 C 68.847656 24.324219 68.875 24.355469 68.90625 24.390625 C 68.933594 24.421875 68.960938 24.453125 68.988281 24.480469 C 69.015625 24.507812 69.050781 24.53125 69.082031 24.554688 C 69.117188 24.585938 69.15625 24.613281 69.195312 24.636719 C 69.207031 24.644531 69.21875 24.65625 69.230469 24.664062 L 91.78125 37.683594 C 91.785156 37.6875 91.785156 37.6875 91.785156 37.6875 C 91.871094 37.734375 91.957031 37.769531 92.050781 37.796875 C 92.175781 37.832031 92.304688 37.859375 92.429688 37.859375 C 92.429688 37.859375 92.433594 37.859375 92.433594 37.859375 C 92.566406 37.859375 92.695312 37.832031 92.824219 37.789062 C 92.910156 37.761719 92.996094 37.730469 93.074219 37.6875 C 93.078125 37.6875 93.078125 37.6875 93.082031 37.6875 L 104.378906 31.179688 L 104.386719 31.175781 C 104.476562 31.121094 104.554688 31.058594 104.625 30.992188 C 104.648438 30.972656 104.664062 30.953125 104.683594 30.933594 C 104.738281 30.871094 104.789062 30.808594 104.832031 30.738281 C 104.84375 30.722656 104.855469 30.714844 104.863281 30.699219 C 104.871094 30.6875 104.875 30.671875 104.878906 30.65625 C 104.902344 30.617188 104.921875 30.578125 104.9375 30.535156 C 104.953125 30.5 104.96875 30.460938 104.980469 30.417969 C 104.992188 30.382812 105 30.339844 105.007812 30.300781 C 105.015625 30.257812 105.023438 30.214844 105.03125 30.171875 C 105.03125 30.132812 105.03125 30.09375 105.03125 30.050781 C 105.03125 30.007812 105.03125 29.96875 105.03125 29.925781 C 105.023438 29.882812 105.015625 29.84375 105.007812 29.800781 C 105 29.757812 104.992188 29.71875 104.980469 29.679688 C 104.96875 29.640625 104.953125 29.605469 104.9375 29.566406 C 104.921875 29.523438 104.902344 29.480469 104.878906 29.4375 C 104.875 29.425781 104.871094 29.410156 104.867188 29.398438 C 104.851562 29.378906 104.835938 29.359375 104.820312 29.339844 C 104.792969 29.300781 104.769531 29.261719 104.738281 29.226562 C 104.714844 29.191406 104.683594 29.164062 104.65625 29.132812 C 104.625 29.105469 104.597656 29.078125 104.5625 29.046875 C 104.523438 29.019531 104.488281 28.992188 104.445312 28.96875 C 104.425781 28.953125 104.410156 28.9375 104.386719 28.925781 L 70.53125 9.371094 C 70.507812 9.355469 70.484375 9.351562 70.460938 9.34375 C 70.421875 9.320312 70.378906 9.300781 70.335938 9.285156 C 70.292969 9.269531 70.25 9.253906 70.207031 9.246094 C 70.171875 9.234375 70.132812 9.226562 70.097656 9.21875 C 70.046875 9.210938 69.996094 9.207031 69.945312 9.203125 C 69.921875 9.203125 69.902344 9.195312 69.878906 9.195312 C 69.867188 9.195312 69.855469 9.199219 69.84375 9.199219 C 69.792969 9.203125 69.738281 9.210938 69.6875 9.21875 C 69.652344 9.222656 69.621094 9.226562 69.582031 9.234375 C 69.539062 9.246094 69.496094 9.261719 69.453125 9.277344 C 69.417969 9.289062 69.378906 9.296875 69.34375 9.316406 C 69.304688 9.335938 69.265625 9.355469 69.226562 9.378906 C 69.195312 9.398438 69.160156 9.417969 69.125 9.4375 C 69.089844 9.464844 69.0625 9.496094 69.027344 9.523438 C 68.996094 9.550781 68.964844 9.574219 68.9375 9.605469 C 68.910156 9.636719 68.882812 9.667969 68.859375 9.703125 C 68.828125 9.734375 68.804688 9.773438 68.78125 9.8125 C 68.769531 9.824219 68.761719 9.835938 68.753906 9.847656 C 68.742188 9.871094 68.734375 9.894531 68.722656 9.914062 C 68.703125 9.957031 68.683594 9.996094 68.667969 10.039062 C 68.652344 10.082031 68.640625 10.121094 68.628906 10.164062 C 68.617188 10.203125 68.609375 10.242188 68.601562 10.285156 C 68.59375 10.328125 68.589844 10.378906 68.585938 10.425781 C 68.585938 10.449219 68.582031 10.472656 68.582031 10.496094 L 68.582031 23.539062 C 68.582031 23.554688 68.582031 23.566406 68.582031 23.582031 C 68.585938 23.628906 68.589844 23.671875 68.597656 23.722656 Z M 40.195312 77.027344 L 60.871094 88.964844 L 60.871094 99.003906 L 31.492188 82.039062 Z M 63.453125 88.035156 C 63.445312 87.996094 63.441406 87.953125 63.433594 87.914062 C 63.421875 87.871094 63.410156 87.835938 63.394531 87.796875 C 63.382812 87.757812 63.371094 87.714844 63.351562 87.675781 C 63.335938 87.640625 63.3125 87.605469 63.292969 87.566406 C 63.269531 87.53125 63.25 87.496094 63.226562 87.460938 C 63.203125 87.425781 63.175781 87.394531 63.148438 87.363281 C 63.117188 87.332031 63.09375 87.300781 63.0625 87.273438 C 63.03125 87.242188 63 87.21875 62.964844 87.195312 C 62.929688 87.167969 62.894531 87.140625 62.859375 87.113281 C 62.84375 87.105469 62.835938 87.097656 62.820312 87.089844 L 40.847656 74.398438 C 40.835938 74.394531 40.820312 74.390625 40.808594 74.382812 C 40.765625 74.363281 40.730469 74.34375 40.683594 74.328125 C 40.648438 74.3125 40.605469 74.296875 40.566406 74.285156 C 40.53125 74.273438 40.492188 74.265625 40.453125 74.257812 C 40.410156 74.25 40.367188 74.242188 40.320312 74.234375 C 40.28125 74.234375 40.242188 74.234375 40.207031 74.234375 C 40.160156 74.234375 40.117188 74.234375 40.070312 74.234375 C 40.03125 74.242188 39.996094 74.246094 39.957031 74.253906 C 39.910156 74.261719 39.867188 74.269531 39.824219 74.285156 C 39.789062 74.296875 39.753906 74.3125 39.71875 74.324219 C 39.671875 74.34375 39.628906 74.359375 39.585938 74.382812 C 39.574219 74.390625 39.5625 74.394531 39.546875 74.398438 L 28.242188 80.910156 C 28.21875 80.921875 28.199219 80.941406 28.179688 80.957031 C 28.140625 80.980469 28.105469 81.007812 28.070312 81.035156 C 28.035156 81.0625 28.003906 81.09375 27.972656 81.125 C 27.945312 81.152344 27.917969 81.183594 27.890625 81.210938 C 27.859375 81.25 27.835938 81.289062 27.808594 81.328125 C 27.792969 81.351562 27.777344 81.363281 27.765625 81.386719 C 27.757812 81.402344 27.757812 81.414062 27.75 81.425781 C 27.726562 81.464844 27.707031 81.511719 27.691406 81.554688 C 27.675781 81.589844 27.660156 81.625 27.648438 81.664062 C 27.636719 81.707031 27.628906 81.746094 27.621094 81.785156 C 27.613281 81.828125 27.605469 81.871094 27.601562 81.914062 C 27.597656 81.953125 27.597656 81.996094 27.597656 82.039062 C 27.597656 82.078125 27.597656 82.121094 27.601562 82.160156 C 27.605469 82.203125 27.613281 82.246094 27.621094 82.285156 C 27.628906 82.328125 27.636719 82.367188 27.648438 82.410156 C 27.660156 82.445312 27.675781 82.484375 27.691406 82.523438 C 27.707031 82.5625 27.726562 82.605469 27.746094 82.648438 C 27.753906 82.660156 27.757812 82.671875 27.765625 82.683594 C 27.773438 82.703125 27.785156 82.710938 27.796875 82.726562 C 27.839844 82.792969 27.890625 82.859375 27.945312 82.921875 C 27.964844 82.941406 27.980469 82.960938 28 82.980469 C 28.074219 83.046875 28.152344 83.113281 28.242188 83.164062 L 61.523438 102.382812 C 61.535156 102.390625 61.554688 102.394531 61.570312 102.402344 C 61.636719 102.4375 61.710938 102.46875 61.789062 102.492188 C 61.8125 102.5 61.84375 102.511719 61.871094 102.515625 C 61.964844 102.539062 62.0625 102.554688 62.167969 102.554688 C 62.167969 102.554688 62.167969 102.558594 62.167969 102.558594 C 62.167969 102.558594 62.167969 102.558594 62.171875 102.558594 C 62.277344 102.558594 62.378906 102.539062 62.476562 102.515625 C 62.503906 102.507812 62.527344 102.5 62.554688 102.492188 C 62.625 102.46875 62.699219 102.441406 62.761719 102.40625 C 62.792969 102.394531 62.816406 102.378906 62.84375 102.363281 C 62.921875 102.316406 62.992188 102.261719 63.058594 102.203125 C 63.066406 102.195312 63.078125 102.1875 63.085938 102.179688 C 63.160156 102.105469 63.222656 102.019531 63.277344 101.933594 C 63.28125 101.921875 63.292969 101.914062 63.296875 101.90625 C 63.308594 101.882812 63.316406 101.859375 63.328125 101.839844 C 63.347656 101.796875 63.367188 101.753906 63.386719 101.710938 C 63.402344 101.671875 63.410156 101.632812 63.421875 101.59375 C 63.433594 101.550781 63.441406 101.511719 63.449219 101.46875 C 63.457031 101.421875 63.460938 101.375 63.464844 101.332031 C 63.464844 101.304688 63.472656 101.28125 63.472656 101.257812 L 63.472656 88.214844 C 63.472656 88.199219 63.46875 88.183594 63.46875 88.171875 C 63.464844 88.125 63.460938 88.082031 63.453125 88.035156 Z M 40.25 34.9375 L 31.546875 29.925781 L 60.871094 12.992188 L 60.871094 23.03125 Z M 63.449219 10.53125 C 63.441406 10.488281 63.433594 10.445312 63.421875 10.40625 C 63.410156 10.363281 63.402344 10.328125 63.386719 10.285156 C 63.367188 10.242188 63.347656 10.199219 63.328125 10.15625 C 63.316406 10.136719 63.308594 10.113281 63.296875 10.09375 C 63.289062 10.078125 63.277344 10.070312 63.269531 10.058594 C 63.25 10.015625 63.21875 9.980469 63.191406 9.945312 C 63.164062 9.910156 63.140625 9.878906 63.113281 9.851562 C 63.085938 9.820312 63.054688 9.792969 63.023438 9.765625 C 62.988281 9.738281 62.960938 9.710938 62.921875 9.683594 C 62.890625 9.660156 62.855469 9.640625 62.820312 9.621094 C 62.785156 9.601562 62.746094 9.578125 62.707031 9.558594 C 62.671875 9.546875 62.632812 9.53125 62.59375 9.519531 C 62.554688 9.503906 62.511719 9.488281 62.46875 9.480469 C 62.433594 9.472656 62.394531 9.464844 62.355469 9.460938 C 62.308594 9.453125 62.261719 9.449219 62.210938 9.445312 C 62.199219 9.445312 62.183594 9.445312 62.171875 9.445312 C 62.148438 9.445312 62.125 9.449219 62.101562 9.449219 C 62.054688 9.449219 62.003906 9.457031 61.957031 9.464844 C 61.914062 9.472656 61.878906 9.480469 61.839844 9.488281 C 61.796875 9.5 61.757812 9.511719 61.714844 9.53125 C 61.671875 9.546875 61.632812 9.566406 61.585938 9.585938 C 61.566406 9.597656 61.542969 9.601562 61.523438 9.617188 L 28.296875 28.800781 C 28.273438 28.8125 28.257812 28.828125 28.238281 28.84375 C 28.199219 28.867188 28.15625 28.894531 28.121094 28.925781 C 28.089844 28.953125 28.0625 28.980469 28.03125 29.011719 C 28 29.039062 27.972656 29.070312 27.945312 29.105469 C 27.914062 29.140625 27.886719 29.179688 27.863281 29.214844 C 27.851562 29.234375 27.832031 29.257812 27.820312 29.277344 C 27.8125 29.289062 27.808594 29.304688 27.800781 29.316406 C 27.78125 29.359375 27.765625 29.398438 27.746094 29.441406 C 27.730469 29.480469 27.714844 29.519531 27.703125 29.554688 C 27.691406 29.597656 27.683594 29.636719 27.675781 29.675781 C 27.667969 29.71875 27.660156 29.761719 27.65625 29.800781 C 27.648438 29.84375 27.652344 29.886719 27.652344 29.925781 C 27.652344 29.96875 27.648438 30.011719 27.65625 30.050781 C 27.660156 30.09375 27.667969 30.136719 27.675781 30.175781 C 27.683594 30.214844 27.691406 30.257812 27.703125 30.296875 C 27.714844 30.335938 27.730469 30.375 27.746094 30.410156 C 27.765625 30.453125 27.78125 30.496094 27.804688 30.539062 C 27.808594 30.550781 27.8125 30.5625 27.820312 30.578125 C 27.828125 30.589844 27.84375 30.601562 27.851562 30.613281 C 27.894531 30.6875 27.945312 30.75 28.003906 30.808594 C 28.019531 30.832031 28.039062 30.851562 28.054688 30.867188 C 28.128906 30.9375 28.207031 31 28.296875 31.050781 L 28.304688 31.058594 L 39.605469 37.5625 C 39.605469 37.566406 39.605469 37.566406 39.605469 37.566406 C 39.691406 37.613281 39.777344 37.644531 39.871094 37.675781 C 39.996094 37.710938 40.121094 37.738281 40.25 37.738281 C 40.253906 37.738281 40.253906 37.738281 40.253906 37.738281 C 40.386719 37.738281 40.519531 37.710938 40.652344 37.667969 C 40.734375 37.636719 40.820312 37.609375 40.898438 37.566406 C 40.898438 37.5625 40.902344 37.5625 40.902344 37.5625 L 62.820312 24.910156 C 62.835938 24.902344 62.84375 24.890625 62.855469 24.882812 C 62.894531 24.859375 62.933594 24.832031 62.96875 24.804688 C 63.003906 24.777344 63.03125 24.753906 63.0625 24.726562 C 63.09375 24.695312 63.117188 24.664062 63.148438 24.632812 C 63.175781 24.601562 63.203125 24.570312 63.226562 24.535156 C 63.25 24.503906 63.269531 24.464844 63.292969 24.429688 C 63.3125 24.394531 63.335938 24.359375 63.351562 24.320312 C 63.371094 24.28125 63.382812 24.242188 63.394531 24.199219 C 63.410156 24.164062 63.421875 24.121094 63.433594 24.085938 C 63.441406 24.042969 63.445312 24.003906 63.453125 23.960938 C 63.460938 23.917969 63.464844 23.875 63.46875 23.824219 C 63.46875 23.8125 63.472656 23.796875 63.472656 23.78125 L 63.472656 10.742188 C 63.472656 10.714844 63.464844 10.691406 63.464844 10.667969 C 63.460938 10.621094 63.457031 10.574219 63.449219 10.53125 " fill-opacity="1" fill-rule="nonzero"/></g><g fill="#6f3fcf" fill-opacity="1"><g transform="translate(128.608884, 65.957596)"><g><path d="M 24.328125 0 L 5.796875 0 C 4.941406 0 4.160156 -0.207031 3.453125 -0.625 C 2.753906 -1.039062 2.195312 -1.597656 1.78125 -2.296875 C 1.363281 -3.003906 1.15625 -3.785156 1.15625 -4.640625 L 1.15625 -18.546875 C 1.15625 -19.390625 1.363281 -20.160156 1.78125 -20.859375 C 2.195312 -21.566406 2.753906 -22.128906 3.453125 -22.546875 C 4.160156 -22.960938 4.941406 -23.171875 5.796875 -23.171875 L 24.328125 -23.171875 L 24.328125 -18.546875 L 5.796875 -18.546875 L 5.796875 -4.640625 L 24.328125 -4.640625 Z M 24.328125 0 "/></g></g></g><g fill="#6f3fcf" fill-opacity="1"><g transform="translate(162.043674, 65.957596)"><g><path d="M 19.703125 0 L 5.796875 0 C 4.941406 0 4.160156 -0.207031 3.453125 -0.625 C 2.753906 -1.039062 2.195312 -1.597656 1.78125 -2.296875 C 1.363281 -3.003906 1.15625 -3.785156 1.15625 -4.640625 L 1.15625 -18.546875 C 1.15625 -19.390625 1.363281 -20.160156 1.78125 -20.859375 C 2.195312 -21.566406 2.753906 -22.128906 3.453125 -22.546875 C 4.160156 -22.960938 4.941406 -23.171875 5.796875 -23.171875 L 19.703125 -23.171875 C 20.546875 -23.171875 21.320312 -22.960938 22.03125 -22.546875 C 22.738281 -22.128906 23.296875 -21.566406 23.703125 -20.859375 C 24.117188 -20.160156 24.328125 -19.390625 24.328125 -18.546875 L 24.328125 -4.640625 C 24.328125 -3.804688 24.117188 -3.035156 23.703125 -2.328125 C 23.296875 -1.628906 22.742188 -1.066406 22.046875 -0.640625 C 21.347656 -0.210938 20.566406 0 19.703125 0 Z M 5.796875 -18.546875 L 5.796875 -4.640625 L 19.703125 -4.640625 L 19.703125 -18.546875 Z M 5.796875 -18.546875 "/></g></g></g><g fill="#6f3fcf" fill-opacity="1"><g transform="translate(195.478465, 65.957596)"><g><path d="M 24.328125 -18.546875 L 24.328125 -13.90625 C 24.328125 -13.050781 24.117188 -12.269531 23.703125 -11.5625 C 23.296875 -10.863281 22.738281 -10.304688 22.03125 -9.890625 C 21.320312 -9.472656 20.546875 -9.265625 19.703125 -9.265625 L 15.0625 -9.265625 L 19.703125 -4.640625 L 24.328125 -4.640625 L 24.328125 0 L 18.765625 0 C 18.109375 0 17.550781 -0.226562 17.09375 -0.6875 L 8.515625 -9.265625 L 5.796875 -9.265625 L 5.796875 0 L 1.15625 0 L 1.15625 -23.171875 L 19.703125 -23.171875 C 20.546875 -23.171875 21.320312 -22.960938 22.03125 -22.546875 C 22.738281 -22.128906 23.296875 -21.566406 23.703125 -20.859375 C 24.117188 -20.160156 24.328125 -19.390625 24.328125 -18.546875 Z M 19.703125 -18.546875 L 5.796875 -18.546875 L 5.796875 -13.90625 L 19.703125 -13.90625 Z M 19.703125 -18.546875 "/></g></g></g><g fill="#6f3fcf" fill-opacity="1"><g transform="translate(228.91325, 65.957596)"><g><path d="M 24.328125 -23.171875 L 24.328125 -18.546875 L 5.796875 -18.546875 L 5.796875 -13.90625 L 24.328125 -13.90625 L 24.328125 -9.265625 L 5.796875 -9.265625 L 5.796875 -4.640625 L 24.328125 -4.640625 L 24.328125 0 L 5.796875 0 C 4.941406 0 4.160156 -0.207031 3.453125 -0.625 C 2.753906 -1.039062 2.195312 -1.597656 1.78125 -2.296875 C 1.363281 -3.003906 1.15625 -3.785156 1.15625 -4.640625 L 1.15625 -18.546875 C 1.15625 -19.390625 1.363281 -20.160156 1.78125 -20.859375 C 2.195312 -21.566406 2.753906 -22.128906 3.453125 -22.546875 C 4.160156 -22.960938 4.941406 -23.171875 5.796875 -23.171875 Z M 24.328125 -23.171875 "/></g></g></g><g fill="#6f3fcf" fill-opacity="1"><g transform="translate(262.348045, 65.957596)"><g><path d="M 24.328125 0 L 5.796875 0 C 4.941406 0 4.160156 -0.207031 3.453125 -0.625 C 2.753906 -1.039062 2.195312 -1.597656 1.78125 -2.296875 C 1.363281 -3.003906 1.15625 -3.785156 1.15625 -4.640625 L 1.15625 -23.171875 L 5.796875 -23.171875 L 5.796875 -4.640625 L 24.328125 -4.640625 Z M 24.328125 0 "/></g></g></g><g fill="#6f3fcf" fill-opacity="1"><g transform="translate(295.782839, 65.957596)"><g><path d="M 24.328125 0 L 1.15625 0 L 1.15625 -4.640625 L 10.421875 -4.640625 L 10.421875 -18.546875 L 1.15625 -18.546875 L 1.15625 -23.171875 L 24.328125 -23.171875 L 24.328125 -18.546875 L 15.0625 -18.546875 L 15.0625 -4.640625 L 24.328125 -4.640625 Z M 24.328125 0 "/></g></g></g><g fill="#6f3fcf" fill-opacity="1"><g transform="translate(329.217634, 65.957596)"><g><path d="M 5.796875 -23.171875 L 19.703125 -23.171875 C 20.546875 -23.171875 21.320312 -22.960938 22.03125 -22.546875 C 22.738281 -22.128906 23.296875 -21.566406 23.703125 -20.859375 C 24.117188 -20.160156 24.328125 -19.390625 24.328125 -18.546875 L 24.328125 0 L 19.703125 0 L 19.703125 -9.265625 L 5.796875 -9.265625 L 5.796875 0 L 1.15625 0 L 1.15625 -18.546875 C 1.15625 -19.390625 1.363281 -20.160156 1.78125 -20.859375 C 2.195312 -21.566406 2.753906 -22.128906 3.453125 -22.546875 C 4.160156 -22.960938 4.941406 -23.171875 5.796875 -23.171875 Z M 5.796875 -18.546875 L 5.796875 -13.90625 L 19.703125 -13.90625 L 19.703125 -18.546875 Z M 5.796875 -18.546875 "/></g></g></g></svg>