<svg xmlns="http://www.w3.org/2000/svg" version="1.1" xmlns:xlink="http://www.w3.org/1999/xlink" xmlns:svgjs="http://svgjs.dev/svgjs" width="512" height="512"><svg xmlns="http://www.w3.org/2000/svg" xmlns:xlink="http://www.w3.org/1999/xlink" width="512" zoomAndPan="magnify" viewBox="0 0 384 383.999986" height="512" preserveAspectRatio="xMidYMid meet" version="1.0"><defs><clipPath id="SvgjsClipPath1038"><path d="M 37.789062 22.21875 L 346.304688 22.21875 L 346.304688 361.769531 L 37.789062 361.769531 Z M 37.789062 22.21875 " clip-rule="nonzero"></path></clipPath><clipPath id="SvgjsClipPath1037"><path d="M 36.886719 22.21875 L 345.40625 22.21875 L 345.40625 361.769531 L 36.886719 361.769531 Z M 36.886719 22.21875 " clip-rule="nonzero"></path></clipPath></defs><g clip-path="url(#6a931226e4)"><path fill="#6f3fcf" d="M 47.21875 129.628906 L 78.757812 147.792969 L 78.757812 235.976562 L 47.21875 254.132812 Z M 43.886719 266.777344 C 44.160156 266.6875 44.429688 266.585938 44.675781 266.445312 C 44.742188 266.417969 44.796875 266.410156 44.851562 266.371094 L 85.820312 242.785156 C 85.867188 242.757812 85.90625 242.71875 85.949219 242.691406 C 86.089844 242.601562 86.226562 242.5 86.355469 242.398438 C 86.476562 242.304688 86.585938 242.222656 86.695312 242.121094 C 86.808594 242.019531 86.910156 241.898438 87 241.789062 C 87.101562 241.667969 87.203125 241.558594 87.296875 241.429688 C 87.386719 241.308594 87.460938 241.179688 87.535156 241.042969 C 87.609375 240.914062 87.683594 240.785156 87.746094 240.65625 C 87.8125 240.507812 87.859375 240.363281 87.914062 240.214844 C 87.957031 240.074219 88.003906 239.9375 88.042969 239.789062 C 88.078125 239.652344 88.097656 239.503906 88.117188 239.355469 C 88.144531 239.191406 88.160156 239.027344 88.160156 238.859375 C 88.171875 238.804688 88.179688 238.75 88.179688 238.695312 L 88.179688 145.066406 C 88.179688 145.011719 88.171875 144.964844 88.160156 144.910156 C 88.160156 144.742188 88.144531 144.578125 88.117188 144.410156 C 88.097656 144.265625 88.078125 144.117188 88.042969 143.976562 C 88.003906 143.832031 87.957031 143.691406 87.914062 143.554688 C 87.859375 143.398438 87.8125 143.25 87.746094 143.113281 C 87.683594 142.972656 87.609375 142.84375 87.535156 142.726562 C 87.460938 142.585938 87.386719 142.457031 87.296875 142.328125 C 87.210938 142.210938 87.101562 142.097656 87.011719 141.980469 C 86.910156 141.871094 86.808594 141.75 86.695312 141.648438 C 86.585938 141.546875 86.476562 141.464844 86.367188 141.371094 C 86.226562 141.269531 86.089844 141.160156 85.941406 141.078125 C 85.90625 141.050781 85.867188 141.011719 85.820312 140.984375 L 44.851562 117.394531 C 44.777344 117.351562 44.695312 117.332031 44.621094 117.285156 C 44.464844 117.203125 44.308594 117.136719 44.144531 117.074219 C 44.003906 117.019531 43.867188 116.980469 43.71875 116.945312 C 43.570312 116.898438 43.425781 116.863281 43.269531 116.84375 C 43.101562 116.816406 42.9375 116.796875 42.769531 116.789062 C 42.679688 116.789062 42.59375 116.761719 42.503906 116.761719 C 42.449219 116.761719 42.394531 116.777344 42.335938 116.777344 C 42.171875 116.789062 42.015625 116.804688 41.847656 116.824219 C 41.703125 116.851562 41.554688 116.871094 41.40625 116.898438 C 41.269531 116.933594 41.121094 116.980469 40.984375 117.035156 C 40.835938 117.082031 40.6875 117.136719 40.542969 117.191406 C 40.414062 117.257812 40.285156 117.332031 40.15625 117.40625 C 40.027344 117.488281 39.886719 117.5625 39.765625 117.652344 C 39.648438 117.738281 39.539062 117.839844 39.417969 117.9375 C 39.296875 118.039062 39.1875 118.140625 39.078125 118.253906 C 38.984375 118.355469 38.890625 118.464844 38.808594 118.585938 C 38.699219 118.714844 38.597656 118.851562 38.503906 119 C 38.476562 119.042969 38.441406 119.082031 38.414062 119.128906 C 38.375 119.203125 38.347656 119.273438 38.3125 119.359375 C 38.230469 119.515625 38.15625 119.671875 38.101562 119.835938 C 38.046875 119.976562 38.007812 120.113281 37.972656 120.261719 C 37.925781 120.40625 37.886719 120.554688 37.859375 120.710938 C 37.84375 120.878906 37.824219 121.042969 37.816406 121.210938 C 37.804688 121.300781 37.789062 121.382812 37.789062 121.476562 L 37.789062 262.292969 C 37.789062 262.375 37.804688 262.46875 37.816406 262.550781 C 37.824219 262.726562 37.832031 262.890625 37.859375 263.058594 C 37.886719 263.214844 37.925781 263.351562 37.960938 263.5 C 38.007812 263.648438 38.046875 263.792969 38.101562 263.941406 C 38.15625 264.097656 38.230469 264.246094 38.304688 264.402344 C 38.347656 264.476562 38.367188 264.558594 38.414062 264.640625 C 38.441406 264.679688 38.46875 264.707031 38.496094 264.742188 C 38.691406 265.066406 38.910156 265.367188 39.1875 265.636719 C 39.214844 265.664062 39.242188 265.683594 39.269531 265.710938 C 39.519531 265.941406 39.777344 266.132812 40.0625 266.308594 C 40.164062 266.363281 40.253906 266.410156 40.347656 266.464844 C 40.597656 266.59375 40.855469 266.695312 41.121094 266.777344 C 41.214844 266.804688 41.304688 266.832031 41.398438 266.859375 C 41.757812 266.945312 42.117188 267.007812 42.503906 267.007812 C 42.503906 267.007812 42.503906 267 42.503906 267 C 42.503906 267 42.503906 267.007812 42.503906 267.007812 C 42.511719 267.007812 42.523438 267 42.523438 267 C 42.898438 267 43.25 266.945312 43.597656 266.859375 C 43.699219 266.84375 43.792969 266.804688 43.886719 266.777344 Z M 305.355469 148.65625 L 336.894531 130.492188 L 336.894531 253.292969 L 305.355469 235.128906 Z M 346.140625 262.660156 C 346.175781 262.511719 346.214844 262.375 346.242188 262.21875 C 346.269531 262.054688 346.277344 261.886719 346.289062 261.710938 C 346.296875 261.621094 346.316406 261.539062 346.316406 261.453125 L 346.316406 122.34375 C 346.316406 122.25 346.296875 122.167969 346.289062 122.074219 C 346.277344 121.910156 346.269531 121.734375 346.242188 121.570312 C 346.214844 121.421875 346.175781 121.273438 346.140625 121.125 C 346.105469 120.980469 346.058594 120.832031 346.003906 120.691406 C 345.945312 120.535156 345.875 120.378906 345.800781 120.234375 C 345.753906 120.148438 345.734375 120.066406 345.6875 119.984375 C 345.660156 119.9375 345.625 119.902344 345.597656 119.855469 C 345.503906 119.71875 345.402344 119.578125 345.300781 119.449219 C 345.210938 119.339844 345.128906 119.21875 345.027344 119.109375 C 344.914062 119 344.804688 118.90625 344.683594 118.804688 C 344.574219 118.703125 344.464844 118.601562 344.335938 118.511719 C 344.214844 118.425781 344.078125 118.355469 343.949219 118.269531 C 343.820312 118.195312 343.691406 118.125 343.5625 118.058594 C 343.414062 117.996094 343.277344 117.949219 343.121094 117.902344 C 342.980469 117.847656 342.832031 117.800781 342.695312 117.765625 C 342.546875 117.726562 342.410156 117.710938 342.261719 117.691406 C 342.097656 117.671875 341.929688 117.644531 341.757812 117.644531 C 341.710938 117.636719 341.65625 117.625 341.601562 117.625 C 341.515625 117.625 341.425781 117.644531 341.339844 117.652344 C 341.167969 117.664062 341 117.671875 340.835938 117.699219 C 340.679688 117.726562 340.53125 117.765625 340.382812 117.800781 C 340.246094 117.839844 340.097656 117.882812 339.960938 117.9375 C 339.792969 117.996094 339.636719 118.066406 339.480469 118.152344 C 339.40625 118.1875 339.324219 118.214844 339.25 118.253906 L 298.28125 141.851562 C 298.234375 141.878906 298.199219 141.90625 298.160156 141.933594 C 298.011719 142.027344 297.875 142.136719 297.738281 142.238281 C 297.625 142.328125 297.515625 142.414062 297.40625 142.515625 C 297.296875 142.617188 297.195312 142.734375 297.09375 142.855469 C 297 142.964844 296.898438 143.074219 296.808594 143.195312 C 296.714844 143.324219 296.640625 143.453125 296.566406 143.589844 C 296.492188 143.71875 296.421875 143.839844 296.355469 143.976562 C 296.292969 144.117188 296.246094 144.265625 296.191406 144.410156 C 296.144531 144.558594 296.097656 144.695312 296.0625 144.84375 C 296.023438 144.984375 296.003906 145.128906 295.988281 145.277344 C 295.960938 145.441406 295.941406 145.609375 295.933594 145.773438 C 295.933594 145.828125 295.921875 145.875 295.921875 145.929688 L 295.921875 237.855469 C 295.921875 237.910156 295.933594 237.964844 295.933594 238.011719 C 295.941406 238.1875 295.960938 238.351562 295.988281 238.519531 C 296.003906 238.667969 296.023438 238.804688 296.0625 238.953125 C 296.097656 239.097656 296.144531 239.238281 296.199219 239.375 C 296.246094 239.523438 296.292969 239.671875 296.355469 239.816406 C 296.421875 239.945312 296.492188 240.074219 296.566406 240.203125 C 296.640625 240.332031 296.714844 240.472656 296.808594 240.589844 C 296.898438 240.71875 297 240.832031 297.101562 240.941406 C 297.203125 241.0625 297.296875 241.171875 297.40625 241.28125 C 297.515625 241.382812 297.625 241.464844 297.746094 241.558594 C 297.882812 241.660156 298.011719 241.761719 298.152344 241.855469 C 298.199219 241.882812 298.234375 241.917969 298.28125 241.945312 L 339.25 265.535156 C 339.304688 265.570312 339.371094 265.582031 339.425781 265.609375 C 339.675781 265.738281 339.941406 265.847656 340.21875 265.929688 C 340.308594 265.96875 340.410156 266.003906 340.503906 266.023438 C 340.855469 266.105469 341.210938 266.160156 341.582031 266.171875 C 341.589844 266.171875 341.589844 266.171875 341.601562 266.171875 C 341.988281 266.171875 342.34375 266.105469 342.703125 266.023438 C 342.796875 266.003906 342.890625 265.96875 342.992188 265.941406 C 343.257812 265.855469 343.507812 265.746094 343.753906 265.625 C 343.855469 265.570312 343.949219 265.527344 344.039062 265.46875 C 344.316406 265.296875 344.582031 265.101562 344.824219 264.878906 C 344.851562 264.84375 344.886719 264.824219 344.925781 264.796875 C 345.191406 264.53125 345.414062 264.226562 345.617188 263.90625 C 345.632812 263.867188 345.660156 263.839844 345.6875 263.804688 C 345.734375 263.730469 345.753906 263.648438 345.800781 263.5625 C 345.875 263.40625 345.945312 263.257812 346.003906 263.101562 C 346.058594 262.957031 346.105469 262.808594 346.140625 262.660156 Z M 209.964844 312.472656 L 287.265625 267.855469 L 318.839844 286.039062 L 209.964844 348.894531 Z M 332.785156 287.382812 C 332.820312 287.226562 332.859375 287.078125 332.886719 286.933594 C 332.914062 286.773438 332.949219 286.628906 332.960938 286.480469 C 332.96875 286.332031 332.96875 286.175781 332.96875 286.019531 C 332.96875 285.871094 332.96875 285.726562 332.960938 285.578125 C 332.941406 285.421875 332.914062 285.265625 332.875 285.117188 C 332.847656 284.96875 332.820312 284.824219 332.785156 284.683594 C 332.738281 284.546875 332.683594 284.398438 332.617188 284.261719 C 332.5625 284.113281 332.5 283.964844 332.425781 283.820312 C 332.398438 283.773438 332.390625 283.71875 332.359375 283.671875 C 332.316406 283.589844 332.25 283.523438 332.195312 283.449219 C 332.101562 283.3125 332.011719 283.171875 331.902344 283.042969 C 331.808594 282.925781 331.699219 282.816406 331.597656 282.703125 C 331.484375 282.601562 331.375 282.5 331.265625 282.398438 C 331.125 282.289062 330.988281 282.199219 330.851562 282.105469 C 330.777344 282.050781 330.710938 281.984375 330.628906 281.9375 L 289.613281 258.332031 C 289.566406 258.304688 289.53125 258.296875 289.484375 258.265625 C 289.328125 258.183594 289.160156 258.109375 288.988281 258.046875 C 288.867188 258 288.746094 257.945312 288.617188 257.90625 C 288.453125 257.863281 288.285156 257.824219 288.113281 257.796875 C 287.984375 257.769531 287.863281 257.742188 287.734375 257.734375 C 287.558594 257.714844 287.375 257.714844 287.191406 257.714844 C 287.070312 257.722656 286.953125 257.714844 286.832031 257.722656 C 286.65625 257.742188 286.472656 257.777344 286.296875 257.816406 C 286.175781 257.84375 286.058594 257.863281 285.9375 257.898438 C 285.78125 257.945312 285.617188 258.007812 285.460938 258.082031 C 285.320312 258.136719 285.191406 258.195312 285.0625 258.257812 C 285.007812 258.285156 284.953125 258.304688 284.90625 258.332031 L 202.902344 305.667969 C 202.855469 305.695312 202.808594 305.730469 202.773438 305.757812 C 202.625 305.839844 202.496094 305.941406 202.367188 306.042969 C 202.246094 306.136719 202.136719 306.230469 202.027344 306.328125 C 201.917969 306.429688 201.816406 306.550781 201.722656 306.660156 C 201.613281 306.78125 201.511719 306.890625 201.429688 307.011719 C 201.335938 307.140625 201.261719 307.269531 201.1875 307.398438 C 201.113281 307.527344 201.03125 307.65625 200.976562 307.792969 C 200.914062 307.933594 200.867188 308.078125 200.8125 308.226562 C 200.765625 308.375 200.710938 308.511719 200.683594 308.660156 C 200.644531 308.796875 200.625 308.945312 200.609375 309.09375 C 200.582031 309.257812 200.5625 309.425781 200.5625 309.589844 C 200.554688 309.644531 200.542969 309.691406 200.542969 309.746094 L 200.542969 357.054688 C 200.542969 357.144531 200.5625 357.230469 200.5625 357.3125 C 200.570312 357.488281 200.589844 357.664062 200.617188 357.835938 C 200.644531 357.976562 200.683594 358.121094 200.71875 358.261719 C 200.753906 358.417969 200.800781 358.566406 200.855469 358.710938 C 200.914062 358.867188 200.984375 359.015625 201.058594 359.164062 C 201.105469 359.246094 201.125 359.328125 201.171875 359.414062 C 201.1875 359.449219 201.226562 359.476562 201.253906 359.511719 C 201.445312 359.835938 201.667969 360.140625 201.933594 360.40625 C 201.972656 360.433594 202.007812 360.453125 202.035156 360.488281 C 202.277344 360.710938 202.542969 360.90625 202.820312 361.070312 C 202.910156 361.125 203.011719 361.179688 203.105469 361.226562 C 203.351562 361.355469 203.609375 361.457031 203.867188 361.539062 C 203.96875 361.566406 204.0625 361.605469 204.15625 361.621094 C 204.503906 361.714844 204.871094 361.769531 205.261719 361.769531 C 205.269531 361.769531 205.269531 361.769531 205.277344 361.769531 C 205.648438 361.769531 206.007812 361.714844 206.347656 361.632812 C 206.457031 361.605469 206.550781 361.566406 206.652344 361.539062 C 206.917969 361.449219 207.183594 361.347656 207.433594 361.207031 C 207.488281 361.179688 207.554688 361.171875 207.617188 361.136719 L 330.628906 290.109375 C 330.960938 289.925781 331.246094 289.695312 331.503906 289.457031 C 331.578125 289.382812 331.632812 289.308594 331.699219 289.234375 C 331.910156 289.011719 332.09375 288.773438 332.25 288.523438 C 332.289062 288.46875 332.332031 288.433594 332.359375 288.386719 C 332.390625 288.339844 332.398438 288.296875 332.425781 288.25 C 332.5 288.09375 332.574219 287.9375 332.628906 287.777344 C 332.683594 287.640625 332.746094 287.511719 332.785156 287.382812 Z M 287.070312 116.03125 L 209.964844 71.515625 L 209.964844 35.097656 L 318.636719 97.851562 Z M 200.609375 74.90625 C 200.625 75.042969 200.644531 75.191406 200.683594 75.328125 C 200.710938 75.476562 200.765625 75.625 200.820312 75.773438 C 200.867188 75.910156 200.914062 76.058594 200.976562 76.195312 C 201.03125 76.332031 201.113281 76.460938 201.1875 76.589844 C 201.273438 76.71875 201.335938 76.847656 201.429688 76.96875 C 201.511719 77.097656 201.613281 77.207031 201.722656 77.328125 C 201.824219 77.449219 201.917969 77.558594 202.027344 77.660156 C 202.128906 77.761719 202.246094 77.84375 202.359375 77.9375 C 202.496094 78.046875 202.625 78.148438 202.773438 78.230469 C 202.820312 78.257812 202.855469 78.296875 202.902344 78.324219 L 284.703125 125.558594 C 284.714844 125.566406 284.714844 125.566406 284.722656 125.566406 C 285.027344 125.742188 285.347656 125.859375 285.679688 125.960938 C 286.132812 126.101562 286.601562 126.191406 287.0625 126.191406 C 287.0625 126.191406 287.070312 126.191406 287.070312 126.191406 C 287.550781 126.191406 288.019531 126.089844 288.488281 125.945312 C 288.800781 125.84375 289.117188 125.730469 289.402344 125.566406 C 289.410156 125.566406 289.410156 125.566406 289.417969 125.566406 L 330.398438 101.96875 C 330.398438 101.957031 330.398438 101.957031 330.398438 101.957031 L 330.425781 101.949219 C 330.757812 101.753906 331.042969 101.527344 331.300781 101.285156 C 331.375 101.210938 331.441406 101.136719 331.503906 101.066406 C 331.707031 100.84375 331.890625 100.613281 332.046875 100.363281 C 332.085938 100.308594 332.128906 100.273438 332.160156 100.21875 C 332.1875 100.171875 332.203125 100.117188 332.222656 100.070312 C 332.304688 99.921875 332.371094 99.773438 332.425781 99.628906 C 332.480469 99.488281 332.546875 99.351562 332.582031 99.203125 C 332.628906 99.066406 332.65625 98.917969 332.683594 98.78125 C 332.710938 98.625 332.746094 98.46875 332.765625 98.3125 C 332.777344 98.164062 332.777344 98.015625 332.777344 97.867188 C 332.777344 97.710938 332.777344 97.566406 332.765625 97.40625 C 332.746094 97.261719 332.710938 97.113281 332.683594 96.964844 C 332.65625 96.808594 332.628906 96.660156 332.582031 96.515625 C 332.546875 96.375 332.488281 96.246094 332.433594 96.109375 C 332.371094 95.953125 332.304688 95.796875 332.222656 95.648438 C 332.203125 95.601562 332.1875 95.546875 332.167969 95.5 C 332.121094 95.429688 332.058594 95.363281 332 95.289062 C 331.910156 95.140625 331.816406 95.003906 331.707031 94.875 C 331.613281 94.753906 331.503906 94.644531 331.402344 94.542969 C 331.292969 94.433594 331.191406 94.332031 331.070312 94.230469 C 330.933594 94.121094 330.796875 94.027344 330.648438 93.9375 C 330.574219 93.878906 330.519531 93.824219 330.4375 93.777344 L 207.617188 22.855469 C 207.535156 22.800781 207.453125 22.78125 207.367188 22.746094 C 207.222656 22.660156 207.066406 22.597656 206.910156 22.53125 C 206.761719 22.476562 206.605469 22.429688 206.449219 22.394531 C 206.320312 22.359375 206.179688 22.320312 206.042969 22.300781 C 205.859375 22.265625 205.675781 22.257812 205.488281 22.246094 C 205.40625 22.238281 205.332031 22.21875 205.261719 22.21875 C 205.214844 22.21875 205.167969 22.230469 205.121094 22.230469 C 204.9375 22.238281 204.742188 22.265625 204.558594 22.292969 C 204.429688 22.3125 204.3125 22.320312 204.183594 22.359375 C 204.015625 22.394531 203.859375 22.449219 203.703125 22.503906 C 203.574219 22.550781 203.445312 22.589844 203.316406 22.652344 C 203.167969 22.71875 203.03125 22.800781 202.894531 22.875 C 202.773438 22.945312 202.644531 23.019531 202.523438 23.09375 C 202.394531 23.1875 202.285156 23.296875 202.164062 23.40625 C 202.046875 23.5 201.933594 23.59375 201.84375 23.703125 C 201.742188 23.8125 201.640625 23.933594 201.558594 24.050781 C 201.445312 24.171875 201.355469 24.308594 201.273438 24.449219 C 201.234375 24.496094 201.199219 24.53125 201.171875 24.578125 C 201.125 24.660156 201.105469 24.742188 201.058594 24.828125 C 200.984375 24.972656 200.914062 25.121094 200.855469 25.277344 C 200.800781 25.425781 200.753906 25.574219 200.71875 25.730469 C 200.683594 25.867188 200.644531 26.015625 200.617188 26.160156 C 200.589844 26.328125 200.570312 26.503906 200.5625 26.675781 C 200.5625 26.761719 200.542969 26.84375 200.542969 26.9375 L 200.542969 74.242188 C 200.542969 74.296875 200.554688 74.34375 200.554688 74.398438 C 200.5625 74.566406 200.582031 74.730469 200.609375 74.90625 Z M 97.574219 268.28125 L 172.578125 311.582031 L 172.578125 348 L 66.007812 286.453125 Z M 181.945312 308.207031 C 181.917969 308.0625 181.902344 307.914062 181.875 307.765625 C 181.835938 307.621094 181.789062 307.480469 181.734375 307.34375 C 181.6875 307.195312 181.644531 307.046875 181.578125 306.910156 C 181.515625 306.773438 181.429688 306.644531 181.359375 306.515625 C 181.285156 306.386719 181.210938 306.257812 181.128906 306.128906 C 181.035156 306 180.933594 305.886719 180.832031 305.769531 C 180.730469 305.65625 180.640625 305.546875 180.527344 305.445312 C 180.417969 305.335938 180.296875 305.253906 180.179688 305.160156 C 180.050781 305.058594 179.921875 304.957031 179.78125 304.867188 C 179.738281 304.835938 179.699219 304.800781 179.652344 304.773438 L 99.941406 258.746094 C 99.894531 258.71875 99.839844 258.710938 99.796875 258.683594 C 99.648438 258.609375 99.507812 258.542969 99.351562 258.488281 C 99.214844 258.425781 99.066406 258.367188 98.921875 258.324219 C 98.789062 258.285156 98.652344 258.257812 98.515625 258.230469 C 98.347656 258.203125 98.191406 258.167969 98.027344 258.148438 C 97.886719 258.136719 97.75 258.136719 97.613281 258.136719 C 97.445312 258.136719 97.289062 258.136719 97.125 258.148438 C 96.984375 258.167969 96.847656 258.195312 96.710938 258.222656 C 96.542969 258.25 96.386719 258.277344 96.230469 258.332031 C 96.101562 258.367188 95.972656 258.425781 95.84375 258.46875 C 95.675781 258.535156 95.519531 258.597656 95.363281 258.683594 C 95.328125 258.710938 95.273438 258.71875 95.226562 258.746094 L 54.21875 282.363281 C 54.128906 282.410156 54.0625 282.472656 53.988281 282.527344 C 53.851562 282.621094 53.710938 282.714844 53.582031 282.816406 C 53.464844 282.914062 53.355469 283.027344 53.242188 283.136719 C 53.140625 283.238281 53.039062 283.347656 52.9375 283.460938 C 52.828125 283.597656 52.738281 283.734375 52.644531 283.882812 C 52.589844 283.957031 52.535156 284.011719 52.488281 284.09375 C 52.460938 284.140625 52.449219 284.1875 52.421875 284.234375 C 52.339844 284.378906 52.277344 284.535156 52.210938 284.695312 C 52.15625 284.832031 52.101562 284.960938 52.0625 285.097656 C 52.019531 285.246094 51.992188 285.394531 51.960938 285.539062 C 51.933594 285.699219 51.898438 285.84375 51.890625 286 C 51.871094 286.148438 51.871094 286.296875 51.871094 286.453125 C 51.871094 286.601562 51.871094 286.746094 51.890625 286.894531 C 51.898438 287.050781 51.933594 287.207031 51.960938 287.355469 C 51.992188 287.503906 52.019531 287.648438 52.054688 287.796875 C 52.101562 287.9375 52.15625 288.074219 52.210938 288.210938 C 52.277344 288.359375 52.339844 288.515625 52.414062 288.664062 C 52.441406 288.710938 52.449219 288.753906 52.480469 288.800781 C 52.515625 288.867188 52.5625 288.894531 52.597656 288.949219 C 52.753906 289.199219 52.9375 289.4375 53.140625 289.65625 C 53.207031 289.730469 53.269531 289.804688 53.335938 289.871094 C 53.601562 290.117188 53.886719 290.347656 54.210938 290.53125 L 174.9375 360.25 C 174.992188 360.289062 175.058594 360.296875 175.113281 360.324219 C 175.359375 360.453125 175.628906 360.5625 175.90625 360.648438 C 175.996094 360.675781 176.097656 360.71875 176.199219 360.738281 C 176.539062 360.820312 176.898438 360.875 177.277344 360.875 C 177.277344 360.875 177.285156 360.886719 177.285156 360.886719 C 177.285156 360.886719 177.285156 360.886719 177.296875 360.886719 C 177.671875 360.886719 178.042969 360.820312 178.402344 360.738281 C 178.492188 360.710938 178.585938 360.683594 178.675781 360.65625 C 178.945312 360.574219 179.203125 360.460938 179.441406 360.34375 C 179.542969 360.296875 179.636719 360.242188 179.726562 360.1875 C 180.011719 360.011719 180.269531 359.816406 180.511719 359.597656 C 180.546875 359.570312 180.582031 359.542969 180.613281 359.511719 C 180.878906 359.246094 181.109375 358.941406 181.300781 358.621094 C 181.320312 358.582031 181.359375 358.554688 181.375 358.527344 C 181.421875 358.445312 181.441406 358.363281 181.488281 358.289062 C 181.558594 358.132812 181.632812 357.976562 181.699219 357.820312 C 181.753906 357.671875 181.789062 357.535156 181.828125 357.386719 C 181.875 357.238281 181.902344 357.089844 181.929688 356.933594 C 181.957031 356.769531 181.976562 356.601562 181.984375 356.4375 C 181.984375 356.34375 182.011719 356.261719 182.011719 356.171875 L 182.011719 308.863281 C 182.011719 308.808594 181.992188 308.753906 181.992188 308.707031 C 181.984375 308.53125 181.964844 308.375 181.945312 308.207031 Z M 97.777344 115.589844 L 66.203125 97.40625 L 172.578125 35.988281 L 172.578125 72.410156 Z M 181.929688 27.054688 C 181.902344 26.898438 181.875 26.75 181.828125 26.605469 C 181.789062 26.457031 181.753906 26.320312 181.699219 26.171875 C 181.632812 26.015625 181.558594 25.859375 181.488281 25.703125 C 181.441406 25.628906 181.421875 25.542969 181.375 25.472656 C 181.347656 25.414062 181.3125 25.386719 181.285156 25.34375 C 181.199219 25.195312 181.089844 25.054688 180.988281 24.925781 C 180.898438 24.808594 180.8125 24.699219 180.710938 24.597656 C 180.613281 24.484375 180.492188 24.382812 180.382812 24.28125 C 180.261719 24.179688 180.152344 24.082031 180.023438 23.988281 C 179.902344 23.90625 179.773438 23.832031 179.644531 23.757812 C 179.515625 23.683594 179.378906 23.601562 179.238281 23.535156 C 179.109375 23.480469 178.972656 23.433594 178.824219 23.390625 C 178.675781 23.335938 178.53125 23.277344 178.375 23.242188 C 178.246094 23.214844 178.105469 23.195312 177.96875 23.175781 C 177.792969 23.148438 177.617188 23.132812 177.433594 23.121094 C 177.386719 23.121094 177.339844 23.113281 177.296875 23.113281 C 177.210938 23.113281 177.128906 23.132812 177.046875 23.132812 C 176.871094 23.140625 176.6875 23.160156 176.511719 23.1875 C 176.363281 23.214844 176.226562 23.242188 176.089844 23.277344 C 175.941406 23.324219 175.792969 23.363281 175.636719 23.425781 C 175.480469 23.480469 175.332031 23.554688 175.175781 23.628906 C 175.101562 23.675781 175.019531 23.691406 174.9375 23.738281 L 54.414062 93.328125 C 54.328125 93.375 54.265625 93.4375 54.199219 93.484375 C 54.054688 93.578125 53.90625 93.679688 53.777344 93.789062 C 53.65625 93.890625 53.554688 93.992188 53.445312 94.09375 C 53.335938 94.203125 53.234375 94.3125 53.132812 94.433594 C 53.023438 94.5625 52.929688 94.699219 52.835938 94.839844 C 52.792969 94.910156 52.726562 94.984375 52.679688 95.058594 C 52.652344 95.105469 52.644531 95.160156 52.617188 95.207031 C 52.542969 95.355469 52.480469 95.5 52.414062 95.65625 C 52.359375 95.796875 52.304688 95.933594 52.257812 96.074219 C 52.210938 96.21875 52.183594 96.367188 52.15625 96.503906 C 52.128906 96.660156 52.101562 96.820312 52.082031 96.964844 C 52.0625 97.113281 52.074219 97.269531 52.074219 97.417969 C 52.074219 97.566406 52.0625 97.722656 52.082031 97.867188 C 52.101562 98.015625 52.128906 98.171875 52.15625 98.320312 C 52.191406 98.46875 52.210938 98.613281 52.257812 98.761719 C 52.304688 98.898438 52.359375 99.039062 52.414062 99.167969 C 52.480469 99.324219 52.542969 99.480469 52.625 99.636719 C 52.644531 99.683594 52.652344 99.730469 52.679688 99.773438 C 52.71875 99.820312 52.765625 99.867188 52.792969 99.914062 C 52.949219 100.171875 53.132812 100.402344 53.34375 100.621094 C 53.410156 100.695312 53.472656 100.769531 53.539062 100.835938 C 53.804688 101.082031 54.089844 101.3125 54.414062 101.496094 L 54.441406 101.515625 L 95.429688 125.113281 C 95.429688 125.125 95.4375 125.125 95.4375 125.125 C 95.742188 125.296875 96.066406 125.417969 96.394531 125.519531 C 96.847656 125.65625 97.308594 125.75 97.777344 125.75 C 97.785156 125.75 97.785156 125.75 97.785156 125.75 C 98.273438 125.75 98.753906 125.648438 99.234375 125.492188 C 99.535156 125.390625 99.839844 125.28125 100.125 125.125 C 100.125 125.113281 100.136719 125.113281 100.136719 125.113281 L 179.652344 79.214844 C 179.699219 79.1875 179.738281 79.152344 179.773438 79.125 C 179.921875 79.03125 180.058594 78.929688 180.1875 78.828125 C 180.308594 78.738281 180.417969 78.644531 180.519531 78.554688 C 180.640625 78.441406 180.730469 78.332031 180.832031 78.210938 C 180.933594 78.101562 181.035156 77.980469 181.128906 77.863281 C 181.210938 77.742188 181.285156 77.605469 181.359375 77.476562 C 181.429688 77.347656 181.515625 77.21875 181.578125 77.078125 C 181.644531 76.941406 181.6875 76.792969 181.734375 76.648438 C 181.789062 76.507812 181.835938 76.359375 181.875 76.222656 C 181.902344 76.074219 181.917969 75.929688 181.945312 75.78125 C 181.964844 75.613281 181.984375 75.457031 181.992188 75.285156 C 181.992188 75.238281 182.011719 75.183594 182.011719 75.128906 L 182.011719 27.820312 C 182.011719 27.726562 181.984375 27.644531 181.984375 27.550781 C 181.976562 27.386719 181.957031 27.222656 181.929688 27.054688 " fill-opacity="1" fill-rule="nonzero"></path></g><g clip-path="url(#217444f75a)"><path fill="#6f3fcf" d="M 46.320312 129.628906 L 77.855469 147.792969 L 77.855469 235.976562 L 46.320312 254.132812 Z M 42.984375 266.777344 C 43.261719 266.6875 43.527344 266.585938 43.777344 266.445312 C 43.839844 266.417969 43.898438 266.410156 43.953125 266.371094 L 84.921875 242.785156 C 84.96875 242.757812 85.003906 242.71875 85.050781 242.691406 C 85.1875 242.601562 85.328125 242.5 85.457031 242.398438 C 85.574219 242.304688 85.6875 242.222656 85.796875 242.121094 C 85.90625 242.019531 86.007812 241.898438 86.101562 241.789062 C 86.203125 241.667969 86.304688 241.558594 86.394531 241.429688 C 86.488281 241.308594 86.5625 241.179688 86.636719 241.042969 C 86.707031 240.914062 86.78125 240.785156 86.847656 240.65625 C 86.910156 240.507812 86.957031 240.363281 87.011719 240.214844 C 87.058594 240.074219 87.105469 239.9375 87.140625 239.789062 C 87.179688 239.652344 87.195312 239.503906 87.214844 239.355469 C 87.242188 239.191406 87.261719 239.027344 87.261719 238.859375 C 87.269531 238.804688 87.28125 238.75 87.28125 238.695312 L 87.28125 145.066406 C 87.28125 145.011719 87.269531 144.964844 87.261719 144.910156 C 87.261719 144.742188 87.242188 144.578125 87.214844 144.410156 C 87.195312 144.265625 87.179688 144.117188 87.140625 143.976562 C 87.105469 143.832031 87.058594 143.691406 87.011719 143.554688 C 86.957031 143.398438 86.910156 143.25 86.847656 143.113281 C 86.78125 142.972656 86.707031 142.84375 86.636719 142.726562 C 86.5625 142.585938 86.488281 142.457031 86.394531 142.328125 C 86.3125 142.210938 86.203125 142.097656 86.109375 141.980469 C 86.007812 141.871094 85.90625 141.75 85.796875 141.648438 C 85.6875 141.546875 85.574219 141.464844 85.464844 141.371094 C 85.328125 141.269531 85.1875 141.160156 85.042969 141.078125 C 85.003906 141.050781 84.96875 141.011719 84.921875 140.984375 L 43.953125 117.394531 C 43.878906 117.351562 43.796875 117.332031 43.722656 117.285156 C 43.566406 117.203125 43.410156 117.136719 43.242188 117.074219 C 43.105469 117.019531 42.964844 116.980469 42.820312 116.945312 C 42.671875 116.898438 42.523438 116.863281 42.367188 116.84375 C 42.203125 116.816406 42.035156 116.796875 41.871094 116.789062 C 41.777344 116.789062 41.695312 116.761719 41.601562 116.761719 C 41.546875 116.761719 41.492188 116.777344 41.4375 116.777344 C 41.269531 116.789062 41.113281 116.804688 40.949219 116.824219 C 40.800781 116.851562 40.652344 116.871094 40.507812 116.898438 C 40.367188 116.933594 40.222656 116.980469 40.082031 117.035156 C 39.9375 117.082031 39.789062 117.136719 39.640625 117.191406 C 39.511719 117.257812 39.382812 117.332031 39.253906 117.40625 C 39.125 117.488281 38.988281 117.5625 38.867188 117.652344 C 38.746094 117.738281 38.636719 117.839844 38.515625 117.9375 C 38.398438 118.039062 38.285156 118.140625 38.175781 118.253906 C 38.085938 118.355469 37.992188 118.464844 37.910156 118.585938 C 37.800781 118.714844 37.699219 118.851562 37.605469 119 C 37.578125 119.042969 37.539062 119.082031 37.511719 119.128906 C 37.476562 119.203125 37.449219 119.273438 37.410156 119.359375 C 37.328125 119.515625 37.253906 119.671875 37.199219 119.835938 C 37.144531 119.976562 37.109375 120.113281 37.070312 120.261719 C 37.023438 120.40625 36.988281 120.554688 36.960938 120.710938 C 36.941406 120.878906 36.925781 121.042969 36.914062 121.210938 C 36.90625 121.300781 36.886719 121.382812 36.886719 121.476562 L 36.886719 262.292969 C 36.886719 262.375 36.90625 262.46875 36.914062 262.550781 C 36.925781 262.726562 36.933594 262.890625 36.960938 263.058594 C 36.988281 263.214844 37.023438 263.351562 37.0625 263.5 C 37.109375 263.648438 37.144531 263.792969 37.199219 263.941406 C 37.253906 264.097656 37.328125 264.246094 37.402344 264.402344 C 37.449219 264.476562 37.46875 264.558594 37.511719 264.640625 C 37.539062 264.679688 37.570312 264.707031 37.597656 264.742188 C 37.789062 265.066406 38.011719 265.367188 38.285156 265.636719 C 38.316406 265.664062 38.34375 265.683594 38.371094 265.710938 C 38.617188 265.941406 38.875 266.132812 39.160156 266.308594 C 39.261719 266.363281 39.355469 266.410156 39.449219 266.464844 C 39.695312 266.59375 39.953125 266.695312 40.222656 266.777344 C 40.3125 266.804688 40.40625 266.832031 40.496094 266.859375 C 40.855469 266.945312 41.214844 267.007812 41.601562 267.007812 C 41.601562 267.007812 41.601562 267 41.601562 267 C 41.601562 267 41.601562 267.007812 41.601562 267.007812 C 41.613281 267.007812 41.621094 267 41.621094 267 C 42 267 42.347656 266.945312 42.699219 266.859375 C 42.800781 266.84375 42.890625 266.804688 42.984375 266.777344 Z M 304.453125 148.65625 L 335.992188 130.492188 L 335.992188 253.292969 L 304.453125 235.128906 Z M 345.242188 262.660156 C 345.277344 262.511719 345.3125 262.375 345.339844 262.21875 C 345.371094 262.054688 345.378906 261.886719 345.386719 261.710938 C 345.398438 261.621094 345.414062 261.539062 345.414062 261.453125 L 345.414062 122.34375 C 345.414062 122.25 345.398438 122.167969 345.386719 122.074219 C 345.378906 121.910156 345.371094 121.734375 345.339844 121.570312 C 345.3125 121.421875 345.277344 121.273438 345.242188 121.125 C 345.203125 120.980469 345.15625 120.832031 345.101562 120.691406 C 345.046875 120.535156 344.972656 120.378906 344.898438 120.234375 C 344.855469 120.148438 344.835938 120.066406 344.789062 119.984375 C 344.761719 119.9375 344.722656 119.902344 344.695312 119.855469 C 344.605469 119.71875 344.503906 119.578125 344.402344 119.449219 C 344.308594 119.339844 344.226562 119.21875 344.125 119.109375 C 344.015625 119 343.90625 118.90625 343.785156 118.804688 C 343.675781 118.703125 343.5625 118.601562 343.433594 118.511719 C 343.316406 118.425781 343.175781 118.355469 343.046875 118.269531 C 342.917969 118.195312 342.789062 118.125 342.660156 118.058594 C 342.515625 117.996094 342.375 117.949219 342.21875 117.902344 C 342.082031 117.847656 341.933594 117.800781 341.796875 117.765625 C 341.648438 117.726562 341.511719 117.710938 341.363281 117.691406 C 341.195312 117.671875 341.03125 117.644531 340.855469 117.644531 C 340.808594 117.636719 340.753906 117.625 340.699219 117.625 C 340.617188 117.625 340.523438 117.644531 340.441406 117.652344 C 340.265625 117.664062 340.101562 117.671875 339.933594 117.699219 C 339.777344 117.726562 339.632812 117.765625 339.484375 117.800781 C 339.34375 117.839844 339.199219 117.882812 339.058594 117.9375 C 338.894531 117.996094 338.738281 118.066406 338.582031 118.152344 C 338.507812 118.1875 338.425781 118.214844 338.351562 118.253906 L 297.378906 141.851562 C 297.335938 141.878906 297.296875 141.90625 297.261719 141.933594 C 297.113281 142.027344 296.976562 142.136719 296.835938 142.238281 C 296.726562 142.328125 296.617188 142.414062 296.503906 142.515625 C 296.394531 142.617188 296.292969 142.734375 296.191406 142.855469 C 296.101562 142.964844 296 143.074219 295.90625 143.195312 C 295.816406 143.324219 295.742188 143.453125 295.667969 143.589844 C 295.59375 143.71875 295.519531 143.839844 295.457031 143.976562 C 295.390625 144.117188 295.34375 144.265625 295.289062 144.410156 C 295.242188 144.558594 295.199219 144.695312 295.160156 144.84375 C 295.125 144.984375 295.105469 145.128906 295.085938 145.277344 C 295.058594 145.441406 295.039062 145.609375 295.03125 145.773438 C 295.03125 145.828125 295.023438 145.875 295.023438 145.929688 L 295.023438 237.855469 C 295.023438 237.910156 295.03125 237.964844 295.03125 238.011719 C 295.039062 238.1875 295.058594 238.351562 295.085938 238.519531 C 295.105469 238.667969 295.125 238.804688 295.160156 238.953125 C 295.199219 239.097656 295.242188 239.238281 295.300781 239.375 C 295.34375 239.523438 295.390625 239.671875 295.457031 239.816406 C 295.519531 239.945312 295.59375 240.074219 295.667969 240.203125 C 295.742188 240.332031 295.816406 240.472656 295.90625 240.589844 C 296 240.71875 296.101562 240.832031 296.203125 240.941406 C 296.304688 241.0625 296.394531 241.171875 296.503906 241.28125 C 296.617188 241.382812 296.726562 241.464844 296.847656 241.558594 C 296.984375 241.660156 297.113281 241.761719 297.25 241.855469 C 297.296875 241.882812 297.335938 241.917969 297.378906 241.945312 L 338.351562 265.535156 C 338.40625 265.570312 338.46875 265.582031 338.527344 265.609375 C 338.773438 265.738281 339.042969 265.847656 339.316406 265.929688 C 339.410156 265.96875 339.511719 266.003906 339.601562 266.023438 C 339.953125 266.105469 340.3125 266.160156 340.679688 266.171875 C 340.691406 266.171875 340.691406 266.171875 340.699219 266.171875 C 341.085938 266.171875 341.445312 266.105469 341.804688 266.023438 C 341.898438 266.003906 341.988281 265.96875 342.089844 265.941406 C 342.355469 265.855469 342.605469 265.746094 342.855469 265.625 C 342.957031 265.570312 343.046875 265.527344 343.140625 265.46875 C 343.417969 265.296875 343.683594 265.101562 343.921875 264.878906 C 343.949219 264.84375 343.988281 264.824219 344.023438 264.796875 C 344.292969 264.53125 344.511719 264.226562 344.714844 263.90625 C 344.734375 263.867188 344.761719 263.839844 344.789062 263.804688 C 344.835938 263.730469 344.855469 263.648438 344.898438 263.5625 C 344.972656 263.40625 345.046875 263.257812 345.101562 263.101562 C 345.15625 262.957031 345.203125 262.808594 345.242188 262.660156 Z M 209.066406 312.472656 L 286.363281 267.855469 L 317.9375 286.039062 L 209.066406 348.894531 Z M 331.882812 287.382812 C 331.921875 287.226562 331.957031 287.078125 331.984375 286.933594 C 332.011719 286.773438 332.050781 286.628906 332.058594 286.480469 C 332.070312 286.332031 332.070312 286.175781 332.070312 286.019531 C 332.070312 285.871094 332.070312 285.726562 332.058594 285.578125 C 332.042969 285.421875 332.011719 285.265625 331.976562 285.117188 C 331.949219 284.96875 331.921875 284.824219 331.882812 284.683594 C 331.839844 284.546875 331.785156 284.398438 331.71875 284.261719 C 331.664062 284.113281 331.597656 283.964844 331.523438 283.820312 C 331.496094 283.773438 331.488281 283.71875 331.460938 283.671875 C 331.414062 283.589844 331.351562 283.523438 331.296875 283.449219 C 331.203125 283.3125 331.109375 283.171875 331 283.042969 C 330.910156 282.925781 330.796875 282.816406 330.695312 282.703125 C 330.585938 282.601562 330.476562 282.5 330.363281 282.398438 C 330.226562 282.289062 330.089844 282.199219 329.949219 282.105469 C 329.875 282.050781 329.8125 281.984375 329.730469 281.9375 L 288.714844 258.332031 C 288.667969 258.304688 288.628906 258.296875 288.585938 258.265625 C 288.425781 258.183594 288.261719 258.109375 288.085938 258.046875 C 287.96875 258 287.847656 257.945312 287.71875 257.90625 C 287.550781 257.863281 287.386719 257.824219 287.210938 257.796875 C 287.082031 257.769531 286.964844 257.742188 286.835938 257.734375 C 286.660156 257.714844 286.476562 257.714844 286.289062 257.714844 C 286.171875 257.722656 286.050781 257.714844 285.929688 257.722656 C 285.757812 257.742188 285.570312 257.777344 285.398438 257.816406 C 285.277344 257.84375 285.15625 257.863281 285.039062 257.898438 C 284.882812 257.945312 284.714844 258.007812 284.558594 258.082031 C 284.421875 258.136719 284.292969 258.195312 284.164062 258.257812 C 284.109375 258.285156 284.050781 258.304688 284.007812 258.332031 L 202 305.667969 C 201.957031 305.695312 201.910156 305.730469 201.871094 305.757812 C 201.726562 305.839844 201.597656 305.941406 201.46875 306.042969 C 201.347656 306.136719 201.238281 306.230469 201.125 306.328125 C 201.015625 306.429688 200.914062 306.550781 200.824219 306.660156 C 200.710938 306.78125 200.609375 306.890625 200.527344 307.011719 C 200.4375 307.140625 200.363281 307.269531 200.289062 307.398438 C 200.214844 307.527344 200.132812 307.65625 200.078125 307.792969 C 200.011719 307.933594 199.964844 308.078125 199.910156 308.226562 C 199.863281 308.375 199.808594 308.511719 199.78125 308.660156 C 199.746094 308.796875 199.726562 308.945312 199.707031 309.09375 C 199.679688 309.257812 199.660156 309.425781 199.660156 309.589844 C 199.652344 309.644531 199.644531 309.691406 199.644531 309.746094 L 199.644531 357.054688 C 199.644531 357.144531 199.660156 357.230469 199.660156 357.3125 C 199.671875 357.488281 199.691406 357.664062 199.71875 357.835938 C 199.746094 357.976562 199.78125 358.121094 199.820312 358.261719 C 199.855469 358.417969 199.902344 358.566406 199.957031 358.710938 C 200.011719 358.867188 200.085938 359.015625 200.160156 359.164062 C 200.207031 359.246094 200.222656 359.328125 200.269531 359.414062 C 200.289062 359.449219 200.324219 359.476562 200.351562 359.511719 C 200.546875 359.835938 200.765625 360.140625 201.035156 360.40625 C 201.070312 360.433594 201.109375 360.453125 201.136719 360.488281 C 201.375 360.710938 201.640625 360.90625 201.917969 361.070312 C 202.011719 361.125 202.113281 361.179688 202.203125 361.226562 C 202.453125 361.355469 202.710938 361.457031 202.96875 361.539062 C 203.070312 361.566406 203.164062 361.605469 203.253906 361.621094 C 203.605469 361.714844 203.972656 361.769531 204.359375 361.769531 C 204.367188 361.769531 204.367188 361.769531 204.378906 361.769531 C 204.746094 361.769531 205.105469 361.714844 205.445312 361.632812 C 205.558594 361.605469 205.648438 361.566406 205.75 361.539062 C 206.019531 361.449219 206.285156 361.347656 206.535156 361.207031 C 206.589844 361.179688 206.652344 361.171875 206.71875 361.136719 L 329.730469 290.109375 C 330.0625 289.925781 330.347656 289.695312 330.605469 289.457031 C 330.679688 289.382812 330.734375 289.308594 330.796875 289.234375 C 331.007812 289.011719 331.195312 288.773438 331.351562 288.523438 C 331.386719 288.46875 331.433594 288.433594 331.460938 288.386719 C 331.488281 288.339844 331.496094 288.296875 331.523438 288.25 C 331.597656 288.09375 331.671875 287.9375 331.726562 287.777344 C 331.785156 287.640625 331.847656 287.511719 331.882812 287.382812 Z M 286.171875 116.03125 L 209.066406 71.515625 L 209.066406 35.097656 L 317.738281 97.851562 Z M 199.707031 74.90625 C 199.726562 75.042969 199.746094 75.191406 199.78125 75.328125 C 199.808594 75.476562 199.863281 75.625 199.921875 75.773438 C 199.964844 75.910156 200.011719 76.058594 200.078125 76.195312 C 200.132812 76.332031 200.214844 76.460938 200.289062 76.589844 C 200.371094 76.71875 200.4375 76.847656 200.527344 76.96875 C 200.609375 77.097656 200.710938 77.207031 200.824219 77.328125 C 200.925781 77.449219 201.015625 77.558594 201.125 77.660156 C 201.226562 77.761719 201.347656 77.84375 201.457031 77.9375 C 201.597656 78.046875 201.726562 78.148438 201.871094 78.230469 C 201.917969 78.257812 201.957031 78.296875 202 78.324219 L 283.804688 125.558594 C 283.8125 125.566406 283.8125 125.566406 283.820312 125.566406 C 284.125 125.742188 284.449219 125.859375 284.78125 125.960938 C 285.230469 126.101562 285.699219 126.191406 286.160156 126.191406 C 286.160156 126.191406 286.171875 126.191406 286.171875 126.191406 C 286.648438 126.191406 287.121094 126.089844 287.589844 125.945312 C 287.902344 125.84375 288.214844 125.730469 288.5 125.566406 C 288.511719 125.566406 288.511719 125.566406 288.519531 125.566406 L 329.5 101.96875 C 329.5 101.957031 329.5 101.957031 329.5 101.957031 L 329.527344 101.949219 C 329.859375 101.753906 330.144531 101.527344 330.402344 101.285156 C 330.476562 101.210938 330.539062 101.136719 330.605469 101.066406 C 330.808594 100.84375 330.992188 100.613281 331.148438 100.363281 C 331.183594 100.308594 331.230469 100.273438 331.257812 100.21875 C 331.285156 100.171875 331.304688 100.117188 331.324219 100.070312 C 331.40625 99.921875 331.46875 99.773438 331.523438 99.628906 C 331.582031 99.488281 331.644531 99.351562 331.683594 99.203125 C 331.726562 99.066406 331.753906 98.917969 331.785156 98.78125 C 331.8125 98.625 331.847656 98.46875 331.867188 98.3125 C 331.875 98.164062 331.875 98.015625 331.875 97.867188 C 331.875 97.710938 331.875 97.566406 331.867188 97.40625 C 331.847656 97.261719 331.8125 97.113281 331.785156 96.964844 C 331.753906 96.808594 331.726562 96.660156 331.683594 96.515625 C 331.644531 96.375 331.589844 96.246094 331.535156 96.109375 C 331.46875 95.953125 331.40625 95.796875 331.324219 95.648438 C 331.304688 95.601562 331.285156 95.546875 331.265625 95.5 C 331.222656 95.429688 331.15625 95.363281 331.101562 95.289062 C 331.007812 95.140625 330.917969 95.003906 330.808594 94.875 C 330.714844 94.753906 330.605469 94.644531 330.503906 94.542969 C 330.390625 94.433594 330.292969 94.332031 330.171875 94.230469 C 330.035156 94.121094 329.894531 94.027344 329.746094 93.9375 C 329.675781 93.878906 329.617188 93.824219 329.535156 93.777344 L 206.71875 22.855469 C 206.632812 22.800781 206.550781 22.78125 206.46875 22.746094 C 206.320312 22.660156 206.164062 22.597656 206.007812 22.53125 C 205.859375 22.476562 205.703125 22.429688 205.546875 22.394531 C 205.417969 22.359375 205.28125 22.320312 205.140625 22.300781 C 204.957031 22.265625 204.773438 22.257812 204.589844 22.246094 C 204.507812 22.238281 204.433594 22.21875 204.359375 22.21875 C 204.3125 22.21875 204.265625 22.230469 204.222656 22.230469 C 204.039062 22.238281 203.84375 22.265625 203.660156 22.292969 C 203.53125 22.3125 203.410156 22.320312 203.28125 22.359375 C 203.117188 22.394531 202.960938 22.449219 202.804688 22.503906 C 202.675781 22.550781 202.546875 22.589844 202.417969 22.652344 C 202.269531 22.71875 202.128906 22.800781 201.992188 22.875 C 201.871094 22.945312 201.742188 23.019531 201.625 23.09375 C 201.496094 23.1875 201.382812 23.296875 201.265625 23.40625 C 201.144531 23.5 201.035156 23.59375 200.941406 23.703125 C 200.839844 23.8125 200.738281 23.933594 200.65625 24.050781 C 200.546875 24.171875 200.453125 24.308594 200.371094 24.449219 C 200.335938 24.496094 200.296875 24.53125 200.269531 24.578125 C 200.222656 24.660156 200.207031 24.742188 200.160156 24.828125 C 200.085938 24.972656 200.011719 25.121094 199.957031 25.277344 C 199.902344 25.425781 199.855469 25.574219 199.820312 25.730469 C 199.78125 25.867188 199.746094 26.015625 199.71875 26.160156 C 199.691406 26.328125 199.671875 26.503906 199.660156 26.675781 C 199.660156 26.761719 199.644531 26.84375 199.644531 26.9375 L 199.644531 74.242188 C 199.644531 74.296875 199.652344 74.34375 199.652344 74.398438 C 199.660156 74.566406 199.679688 74.730469 199.707031 74.90625 Z M 96.675781 268.28125 L 171.679688 311.582031 L 171.679688 348 L 65.109375 286.453125 Z M 181.046875 308.207031 C 181.019531 308.0625 181 307.914062 180.972656 307.765625 C 180.9375 307.621094 180.890625 307.480469 180.835938 307.34375 C 180.789062 307.195312 180.742188 307.046875 180.679688 306.910156 C 180.613281 306.773438 180.53125 306.644531 180.457031 306.515625 C 180.382812 306.386719 180.308594 306.257812 180.226562 306.128906 C 180.136719 306 180.035156 305.886719 179.933594 305.769531 C 179.832031 305.65625 179.738281 305.546875 179.628906 305.445312 C 179.519531 305.335938 179.398438 305.253906 179.277344 305.160156 C 179.148438 305.058594 179.019531 304.957031 178.882812 304.867188 C 178.835938 304.835938 178.800781 304.800781 178.753906 304.773438 L 99.042969 258.746094 C 98.996094 258.71875 98.941406 258.710938 98.894531 258.683594 C 98.746094 258.609375 98.609375 258.542969 98.453125 258.488281 C 98.316406 258.425781 98.167969 258.367188 98.019531 258.324219 C 97.890625 258.285156 97.753906 258.257812 97.613281 258.230469 C 97.449219 258.203125 97.292969 258.167969 97.125 258.148438 C 96.988281 258.136719 96.851562 258.136719 96.710938 258.136719 C 96.546875 258.136719 96.390625 258.136719 96.222656 258.148438 C 96.085938 258.167969 95.949219 258.195312 95.808594 258.222656 C 95.644531 258.25 95.488281 258.277344 95.332031 258.332031 C 95.203125 258.367188 95.074219 258.425781 94.941406 258.46875 C 94.777344 258.535156 94.621094 258.597656 94.464844 258.683594 C 94.425781 258.710938 94.371094 258.71875 94.328125 258.746094 L 53.320312 282.363281 C 53.226562 282.410156 53.164062 282.472656 53.089844 282.527344 C 52.949219 282.621094 52.8125 282.714844 52.683594 282.816406 C 52.5625 282.914062 52.453125 283.027344 52.34375 283.136719 C 52.242188 283.238281 52.140625 283.347656 52.039062 283.460938 C 51.929688 283.597656 51.835938 283.734375 51.746094 283.882812 C 51.6875 283.957031 51.632812 284.011719 51.585938 284.09375 C 51.558594 284.140625 51.550781 284.1875 51.523438 284.234375 C 51.441406 284.378906 51.375 284.535156 51.3125 284.695312 C 51.257812 284.832031 51.199219 284.960938 51.164062 285.097656 C 51.117188 285.246094 51.089844 285.394531 51.0625 285.539062 C 51.035156 285.699219 51 285.84375 50.988281 286 C 50.96875 286.148438 50.96875 286.296875 50.96875 286.453125 C 50.96875 286.601562 50.96875 286.746094 50.988281 286.894531 C 51 287.050781 51.035156 287.207031 51.0625 287.355469 C 51.089844 287.503906 51.117188 287.648438 51.15625 287.796875 C 51.199219 287.9375 51.257812 288.074219 51.3125 288.210938 C 51.375 288.359375 51.441406 288.515625 51.515625 288.664062 C 51.542969 288.710938 51.550781 288.753906 51.578125 288.800781 C 51.613281 288.867188 51.660156 288.894531 51.699219 288.949219 C 51.855469 289.199219 52.039062 289.4375 52.242188 289.65625 C 52.304688 289.730469 52.371094 289.804688 52.433594 289.871094 C 52.703125 290.117188 52.988281 290.347656 53.308594 290.53125 L 174.039062 360.25 C 174.09375 360.289062 174.15625 360.296875 174.210938 360.324219 C 174.460938 360.453125 174.726562 360.5625 175.003906 360.648438 C 175.097656 360.675781 175.199219 360.71875 175.300781 360.738281 C 175.640625 360.820312 176 360.875 176.375 360.875 C 176.375 360.875 176.386719 360.886719 176.386719 360.886719 C 176.386719 360.886719 176.386719 360.886719 176.394531 360.886719 C 176.773438 360.886719 177.140625 360.820312 177.5 360.738281 C 177.59375 360.710938 177.683594 360.683594 177.777344 360.65625 C 178.042969 360.574219 178.300781 360.460938 178.542969 360.34375 C 178.644531 360.296875 178.734375 360.242188 178.828125 360.1875 C 179.113281 360.011719 179.371094 359.816406 179.609375 359.597656 C 179.648438 359.570312 179.683594 359.542969 179.710938 359.511719 C 179.976562 359.246094 180.207031 358.941406 180.402344 358.621094 C 180.421875 358.582031 180.457031 358.554688 180.476562 358.527344 C 180.523438 358.445312 180.539062 358.363281 180.585938 358.289062 C 180.660156 358.132812 180.734375 357.976562 180.796875 357.820312 C 180.851562 357.671875 180.890625 357.535156 180.925781 357.386719 C 180.972656 357.238281 181 357.089844 181.027344 356.933594 C 181.054688 356.769531 181.074219 356.601562 181.082031 356.4375 C 181.082031 356.34375 181.109375 356.261719 181.109375 356.171875 L 181.109375 308.863281 C 181.109375 308.808594 181.09375 308.753906 181.09375 308.707031 C 181.082031 308.53125 181.066406 308.375 181.046875 308.207031 Z M 96.878906 115.589844 L 65.300781 97.40625 L 171.679688 35.988281 L 171.679688 72.410156 Z M 181.027344 27.054688 C 181 26.898438 180.972656 26.75 180.925781 26.605469 C 180.890625 26.457031 180.851562 26.320312 180.796875 26.171875 C 180.734375 26.015625 180.660156 25.859375 180.585938 25.703125 C 180.539062 25.628906 180.523438 25.542969 180.476562 25.472656 C 180.449219 25.414062 180.410156 25.386719 180.382812 25.34375 C 180.300781 25.195312 180.191406 25.054688 180.089844 24.925781 C 179.996094 24.808594 179.914062 24.699219 179.8125 24.597656 C 179.710938 24.484375 179.589844 24.382812 179.480469 24.28125 C 179.359375 24.179688 179.25 24.082031 179.121094 23.988281 C 179.003906 23.90625 178.875 23.832031 178.742188 23.757812 C 178.613281 23.683594 178.476562 23.601562 178.339844 23.535156 C 178.210938 23.480469 178.070312 23.433594 177.925781 23.390625 C 177.777344 23.335938 177.628906 23.277344 177.472656 23.242188 C 177.34375 23.214844 177.207031 23.195312 177.066406 23.175781 C 176.894531 23.148438 176.71875 23.132812 176.535156 23.121094 C 176.488281 23.121094 176.441406 23.113281 176.394531 23.113281 C 176.3125 23.113281 176.230469 23.132812 176.148438 23.132812 C 175.972656 23.140625 175.789062 23.160156 175.613281 23.1875 C 175.464844 23.214844 175.328125 23.242188 175.1875 23.277344 C 175.042969 23.324219 174.894531 23.363281 174.738281 23.425781 C 174.582031 23.480469 174.433594 23.554688 174.277344 23.628906 C 174.203125 23.675781 174.121094 23.691406 174.039062 23.738281 L 53.511719 93.328125 C 53.429688 93.375 53.367188 93.4375 53.300781 93.484375 C 53.152344 93.578125 53.007812 93.679688 52.878906 93.789062 C 52.757812 93.890625 52.65625 93.992188 52.546875 94.09375 C 52.433594 94.203125 52.332031 94.3125 52.230469 94.433594 C 52.121094 94.5625 52.03125 94.699219 51.9375 94.839844 C 51.890625 94.910156 51.828125 94.984375 51.78125 95.058594 C 51.753906 95.105469 51.746094 95.160156 51.714844 95.207031 C 51.644531 95.355469 51.578125 95.5 51.515625 95.65625 C 51.457031 95.796875 51.402344 95.933594 51.355469 96.074219 C 51.3125 96.21875 51.285156 96.367188 51.257812 96.503906 C 51.226562 96.660156 51.199219 96.820312 51.183594 96.964844 C 51.164062 97.113281 51.171875 97.269531 51.171875 97.417969 C 51.171875 97.566406 51.164062 97.722656 51.183594 97.867188 C 51.199219 98.015625 51.226562 98.171875 51.257812 98.320312 C 51.292969 98.46875 51.3125 98.613281 51.355469 98.761719 C 51.402344 98.898438 51.457031 99.039062 51.515625 99.167969 C 51.578125 99.324219 51.644531 99.480469 51.726562 99.636719 C 51.746094 99.683594 51.753906 99.730469 51.78125 99.773438 C 51.816406 99.820312 51.863281 99.867188 51.890625 99.914062 C 52.046875 100.171875 52.230469 100.402344 52.445312 100.621094 C 52.507812 100.695312 52.574219 100.769531 52.636719 100.835938 C 52.90625 101.082031 53.191406 101.3125 53.511719 101.496094 L 53.539062 101.515625 L 94.527344 125.113281 C 94.527344 125.125 94.539062 125.125 94.539062 125.125 C 94.84375 125.296875 95.164062 125.417969 95.496094 125.519531 C 95.949219 125.65625 96.40625 125.75 96.878906 125.75 C 96.886719 125.75 96.886719 125.75 96.886719 125.75 C 97.375 125.75 97.855469 125.648438 98.332031 125.492188 C 98.636719 125.390625 98.941406 125.28125 99.226562 125.125 C 99.226562 125.113281 99.234375 125.113281 99.234375 125.113281 L 178.753906 79.214844 C 178.800781 79.1875 178.835938 79.152344 178.875 79.125 C 179.019531 79.03125 179.160156 78.929688 179.289062 78.828125 C 179.40625 78.738281 179.519531 78.644531 179.621094 78.554688 C 179.738281 78.441406 179.832031 78.332031 179.933594 78.210938 C 180.035156 78.101562 180.136719 77.980469 180.226562 77.863281 C 180.308594 77.742188 180.382812 77.605469 180.457031 77.476562 C 180.53125 77.347656 180.613281 77.21875 180.679688 77.078125 C 180.742188 76.941406 180.789062 76.792969 180.835938 76.648438 C 180.890625 76.507812 180.9375 76.359375 180.972656 76.222656 C 181 76.074219 181.019531 75.929688 181.046875 75.78125 C 181.066406 75.613281 181.082031 75.457031 181.09375 75.285156 C 181.09375 75.238281 181.109375 75.183594 181.109375 75.128906 L 181.109375 27.820312 C 181.109375 27.726562 181.082031 27.644531 181.082031 27.550781 C 181.074219 27.386719 181.054688 27.222656 181.027344 27.054688 " fill-opacity="1" fill-rule="nonzero"></path></g></svg><style>@media (prefers-color-scheme: light) { :root { filter: none; } }
@media (prefers-color-scheme: dark) { :root { filter: none; } }
</style></svg>