<svg xmlns="http://www.w3.org/2000/svg" xmlns:xlink="http://www.w3.org/1999/xlink" width="500" zoomAndPan="magnify" viewBox="0 0 375 112.499997" height="150" preserveAspectRatio="xMidYMid meet" version="1.0"><defs><g/></defs><g fill="#6f3fcf" fill-opacity="1"><g transform="translate(112.814356, 60.829613)"><g><path d="M 25.921875 0 L 6.171875 0 C 5.265625 0 4.4375 -0.21875 3.6875 -0.65625 C 2.9375 -1.101562 2.335938 -1.703125 1.890625 -2.453125 C 1.453125 -3.203125 1.234375 -4.03125 1.234375 -4.9375 L 1.234375 -24.6875 L 6.171875 -24.6875 L 6.171875 -4.9375 L 25.921875 -4.9375 Z M 25.921875 0 "/></g></g></g><g fill="#6f3fcf" fill-opacity="1"><g transform="translate(139.970265, 60.829613)"><g><path d="M 20.984375 0 L 6.171875 0 C 5.265625 0 4.4375 -0.21875 3.6875 -0.65625 C 2.9375 -1.101562 2.335938 -1.703125 1.890625 -2.453125 C 1.453125 -3.203125 1.234375 -4.03125 1.234375 -4.9375 L 1.234375 -19.75 C 1.234375 -20.65625 1.453125 -21.484375 1.890625 -22.234375 C 2.335938 -22.984375 2.9375 -23.578125 3.6875 -24.015625 C 4.4375 -24.460938 5.265625 -24.6875 6.171875 -24.6875 L 20.984375 -24.6875 C 21.890625 -24.6875 22.71875 -24.460938 23.46875 -24.015625 C 24.21875 -23.578125 24.8125 -22.984375 25.25 -22.234375 C 25.695312 -21.484375 25.921875 -20.65625 25.921875 -19.75 L 25.921875 -4.9375 C 25.921875 -4.050781 25.695312 -3.234375 25.25 -2.484375 C 24.8125 -1.734375 24.222656 -1.128906 23.484375 -0.671875 C 22.742188 -0.222656 21.910156 0 20.984375 0 Z M 6.171875 -19.75 L 6.171875 -4.9375 L 20.984375 -4.9375 L 20.984375 -19.75 Z M 6.171875 -19.75 "/></g></g></g><g fill="#6f3fcf" fill-opacity="1"><g transform="translate(167.126174, 60.829613)"><g><path d="M 25.921875 -24.6875 L 25.921875 -19.75 L 6.171875 -19.75 L 6.171875 -4.9375 L 20.984375 -4.9375 L 20.984375 -9.875 L 11.109375 -9.875 L 11.109375 -14.8125 L 25.921875 -14.8125 L 25.921875 -4.9375 C 25.921875 -4.050781 25.695312 -3.234375 25.25 -2.484375 C 24.8125 -1.734375 24.222656 -1.128906 23.484375 -0.671875 C 22.742188 -0.222656 21.910156 0 20.984375 0 L 6.171875 0 C 5.265625 0 4.4375 -0.21875 3.6875 -0.65625 C 2.9375 -1.101562 2.335938 -1.703125 1.890625 -2.453125 C 1.453125 -3.203125 1.234375 -4.03125 1.234375 -4.9375 L 1.234375 -19.75 C 1.234375 -20.65625 1.453125 -21.484375 1.890625 -22.234375 C 2.335938 -22.984375 2.9375 -23.578125 3.6875 -24.015625 C 4.4375 -24.460938 5.265625 -24.6875 6.171875 -24.6875 Z M 25.921875 -24.6875 "/></g></g></g><g fill="#6f3fcf" fill-opacity="1"><g transform="translate(194.282083, 60.829613)"><g/></g></g><g fill="#6f3fcf" fill-opacity="1"><g transform="translate(207.860037, 60.829613)"><g><path d="M 25.921875 0 L 1.234375 0 L 1.234375 -4.9375 L 11.109375 -4.9375 L 11.109375 -19.75 L 1.234375 -19.75 L 1.234375 -24.6875 L 25.921875 -24.6875 L 25.921875 -19.75 L 16.046875 -19.75 L 16.046875 -4.9375 L 25.921875 -4.9375 Z M 25.921875 0 "/></g></g></g><g fill="#6f3fcf" fill-opacity="1"><g transform="translate(235.015946, 60.829613)"><g><path d="M 6.171875 0 L 1.234375 0 L 1.234375 -22.21875 C 1.234375 -22.894531 1.472656 -23.472656 1.953125 -23.953125 C 2.441406 -24.441406 3.023438 -24.6875 3.703125 -24.6875 C 4.378906 -24.6875 4.96875 -24.441406 5.46875 -23.953125 L 20.984375 -8.421875 L 20.984375 -24.6875 L 25.921875 -24.6875 L 25.921875 -2.46875 C 25.921875 -1.789062 25.675781 -1.207031 25.1875 -0.71875 C 24.707031 -0.238281 24.128906 0 23.453125 0 C 22.773438 0 22.1875 -0.242188 21.6875 -0.734375 L 6.171875 -16.265625 Z M 6.171875 0 "/></g></g></g></svg>