<svg xmlns="http://www.w3.org/2000/svg" xmlns:xlink="http://www.w3.org/1999/xlink" width="500" zoomAndPan="magnify" viewBox="0 0 375 112.499997" height="150" preserveAspectRatio="xMidYMid meet" version="1.0"><defs><g/></defs><g fill="#6f3fcf" fill-opacity="1"><g transform="translate(4.195551, 60.829613)"><g><path d="M 20.984375 -24.6875 C 21.890625 -24.6875 22.71875 -24.460938 23.46875 -24.015625 C 24.21875 -23.578125 24.8125 -22.984375 25.25 -22.234375 C 25.695312 -21.484375 25.921875 -20.65625 25.921875 -19.75 L 25.921875 -14.8125 C 25.921875 -13.90625 25.695312 -13.078125 25.25 -12.328125 C 24.8125 -11.578125 24.21875 -10.976562 23.46875 -10.53125 C 22.71875 -10.09375 21.890625 -9.875 20.984375 -9.875 L 6.171875 -9.875 L 6.171875 0 L 1.234375 0 L 1.234375 -24.6875 Z M 6.171875 -14.8125 L 20.984375 -14.8125 L 20.984375 -19.75 L 6.171875 -19.75 Z M 6.171875 -14.8125 "/></g></g></g><g fill="#6f3fcf" fill-opacity="1"><g transform="translate(31.35146, 60.829613)"><g><path d="M 6.171875 -24.6875 L 20.984375 -24.6875 C 21.890625 -24.6875 22.71875 -24.460938 23.46875 -24.015625 C 24.21875 -23.578125 24.8125 -22.984375 25.25 -22.234375 C 25.695312 -21.484375 25.921875 -20.65625 25.921875 -19.75 L 25.921875 0 L 20.984375 0 L 20.984375 -9.875 L 6.171875 -9.875 L 6.171875 0 L 1.234375 0 L 1.234375 -19.75 C 1.234375 -20.65625 1.453125 -21.484375 1.890625 -22.234375 C 2.335938 -22.984375 2.9375 -23.578125 3.6875 -24.015625 C 4.4375 -24.460938 5.265625 -24.6875 6.171875 -24.6875 Z M 6.171875 -19.75 L 6.171875 -14.8125 L 20.984375 -14.8125 L 20.984375 -19.75 Z M 6.171875 -19.75 "/></g></g></g><g fill="#6f3fcf" fill-opacity="1"><g transform="translate(58.507369, 60.829613)"><g><path d="M 25.921875 -24.6875 L 25.921875 -19.75 L 6.171875 -19.75 L 6.171875 -14.8125 L 20.984375 -14.8125 C 21.890625 -14.8125 22.71875 -14.585938 23.46875 -14.140625 C 24.21875 -13.703125 24.8125 -13.109375 25.25 -12.359375 C 25.695312 -11.609375 25.921875 -10.78125 25.921875 -9.875 L 25.921875 -4.9375 C 25.921875 -4.03125 25.695312 -3.203125 25.25 -2.453125 C 24.8125 -1.703125 24.21875 -1.101562 23.46875 -0.65625 C 22.71875 -0.21875 21.890625 0 20.984375 0 L 1.234375 0 L 1.234375 -4.9375 L 20.984375 -4.9375 L 20.984375 -9.875 L 6.171875 -9.875 C 5.265625 -9.875 4.4375 -10.09375 3.6875 -10.53125 C 2.9375 -10.976562 2.335938 -11.578125 1.890625 -12.328125 C 1.453125 -13.078125 1.234375 -13.90625 1.234375 -14.8125 L 1.234375 -19.75 C 1.234375 -20.65625 1.453125 -21.484375 1.890625 -22.234375 C 2.335938 -22.984375 2.9375 -23.578125 3.6875 -24.015625 C 4.4375 -24.460938 5.265625 -24.6875 6.171875 -24.6875 Z M 25.921875 -24.6875 "/></g></g></g><g fill="#6f3fcf" fill-opacity="1"><g transform="translate(85.663278, 60.829613)"><g><path d="M 25.921875 -24.6875 L 25.921875 -19.75 L 6.171875 -19.75 L 6.171875 -14.8125 L 20.984375 -14.8125 C 21.890625 -14.8125 22.71875 -14.585938 23.46875 -14.140625 C 24.21875 -13.703125 24.8125 -13.109375 25.25 -12.359375 C 25.695312 -11.609375 25.921875 -10.78125 25.921875 -9.875 L 25.921875 -4.9375 C 25.921875 -4.03125 25.695312 -3.203125 25.25 -2.453125 C 24.8125 -1.703125 24.21875 -1.101562 23.46875 -0.65625 C 22.71875 -0.21875 21.890625 0 20.984375 0 L 1.234375 0 L 1.234375 -4.9375 L 20.984375 -4.9375 L 20.984375 -9.875 L 6.171875 -9.875 C 5.265625 -9.875 4.4375 -10.09375 3.6875 -10.53125 C 2.9375 -10.976562 2.335938 -11.578125 1.890625 -12.328125 C 1.453125 -13.078125 1.234375 -13.90625 1.234375 -14.8125 L 1.234375 -19.75 C 1.234375 -20.65625 1.453125 -21.484375 1.890625 -22.234375 C 2.335938 -22.984375 2.9375 -23.578125 3.6875 -24.015625 C 4.4375 -24.460938 5.265625 -24.6875 6.171875 -24.6875 Z M 25.921875 -24.6875 "/></g></g></g><g fill="#6f3fcf" fill-opacity="1"><g transform="translate(112.819187, 60.829613)"><g><path d="M 20.984375 -4.9375 L 20.984375 -24.6875 L 25.921875 -24.6875 L 25.921875 -4.9375 C 25.921875 -4.03125 25.695312 -3.203125 25.25 -2.453125 C 24.8125 -1.703125 24.21875 -1.101562 23.46875 -0.65625 C 22.71875 -0.21875 21.890625 0 20.984375 0 L 6.171875 0 C 5.265625 0 4.4375 -0.21875 3.6875 -0.65625 C 2.9375 -1.101562 2.335938 -1.703125 1.890625 -2.453125 C 1.453125 -3.203125 1.234375 -4.03125 1.234375 -4.9375 L 1.234375 -24.6875 L 6.171875 -24.6875 L 6.171875 -4.9375 L 11.109375 -4.9375 L 11.109375 -24.6875 L 16.046875 -24.6875 L 16.046875 -4.9375 Z M 20.984375 -4.9375 "/></g></g></g><g fill="#6f3fcf" fill-opacity="1"><g transform="translate(139.975095, 60.829613)"><g><path d="M 20.984375 0 L 6.171875 0 C 5.265625 0 4.4375 -0.21875 3.6875 -0.65625 C 2.9375 -1.101562 2.335938 -1.703125 1.890625 -2.453125 C 1.453125 -3.203125 1.234375 -4.03125 1.234375 -4.9375 L 1.234375 -19.75 C 1.234375 -20.65625 1.453125 -21.484375 1.890625 -22.234375 C 2.335938 -22.984375 2.9375 -23.578125 3.6875 -24.015625 C 4.4375 -24.460938 5.265625 -24.6875 6.171875 -24.6875 L 20.984375 -24.6875 C 21.890625 -24.6875 22.71875 -24.460938 23.46875 -24.015625 C 24.21875 -23.578125 24.8125 -22.984375 25.25 -22.234375 C 25.695312 -21.484375 25.921875 -20.65625 25.921875 -19.75 L 25.921875 -4.9375 C 25.921875 -4.050781 25.695312 -3.234375 25.25 -2.484375 C 24.8125 -1.734375 24.222656 -1.128906 23.484375 -0.671875 C 22.742188 -0.222656 21.910156 0 20.984375 0 Z M 6.171875 -19.75 L 6.171875 -4.9375 L 20.984375 -4.9375 L 20.984375 -19.75 Z M 6.171875 -19.75 "/></g></g></g><g fill="#6f3fcf" fill-opacity="1"><g transform="translate(167.131004, 60.829613)"><g><path d="M 25.921875 -19.75 L 25.921875 -14.8125 C 25.921875 -13.90625 25.695312 -13.078125 25.25 -12.328125 C 24.8125 -11.578125 24.21875 -10.976562 23.46875 -10.53125 C 22.71875 -10.09375 21.890625 -9.875 20.984375 -9.875 L 16.046875 -9.875 L 20.984375 -4.9375 L 25.921875 -4.9375 L 25.921875 0 L 20 0 C 19.300781 0 18.703125 -0.242188 18.203125 -0.734375 L 9.078125 -9.875 L 6.171875 -9.875 L 6.171875 0 L 1.234375 0 L 1.234375 -24.6875 L 20.984375 -24.6875 C 21.890625 -24.6875 22.71875 -24.460938 23.46875 -24.015625 C 24.21875 -23.578125 24.8125 -22.984375 25.25 -22.234375 C 25.695312 -21.484375 25.921875 -20.65625 25.921875 -19.75 Z M 20.984375 -19.75 L 6.171875 -19.75 L 6.171875 -14.8125 L 20.984375 -14.8125 Z M 20.984375 -19.75 "/></g></g></g><g fill="#6f3fcf" fill-opacity="1"><g transform="translate(194.286913, 60.829613)"><g><path d="M 20.984375 0 L 1.234375 0 L 1.234375 -24.6875 L 20.984375 -24.6875 C 21.890625 -24.6875 22.71875 -24.460938 23.46875 -24.015625 C 24.21875 -23.578125 24.8125 -22.984375 25.25 -22.234375 C 25.695312 -21.484375 25.921875 -20.65625 25.921875 -19.75 L 25.921875 -4.9375 C 25.921875 -4.03125 25.695312 -3.203125 25.25 -2.453125 C 24.8125 -1.703125 24.21875 -1.101562 23.46875 -0.65625 C 22.71875 -0.21875 21.890625 0 20.984375 0 Z M 6.171875 -19.75 L 6.171875 -4.9375 L 20.984375 -4.9375 L 20.984375 -19.75 Z M 6.171875 -19.75 "/></g></g></g><g fill="#6f3fcf" fill-opacity="1"><g transform="translate(221.442822, 60.829613)"><g/></g></g><g fill="#6f3fcf" fill-opacity="1"><g transform="translate(235.020765, 60.829613)"><g><path d="M 25.921875 -19.75 L 25.921875 -14.8125 C 25.921875 -13.90625 25.695312 -13.078125 25.25 -12.328125 C 24.8125 -11.578125 24.21875 -10.976562 23.46875 -10.53125 C 22.71875 -10.09375 21.890625 -9.875 20.984375 -9.875 L 16.046875 -9.875 L 20.984375 -4.9375 L 25.921875 -4.9375 L 25.921875 0 L 20 0 C 19.300781 0 18.703125 -0.242188 18.203125 -0.734375 L 9.078125 -9.875 L 6.171875 -9.875 L 6.171875 0 L 1.234375 0 L 1.234375 -24.6875 L 20.984375 -24.6875 C 21.890625 -24.6875 22.71875 -24.460938 23.46875 -24.015625 C 24.21875 -23.578125 24.8125 -22.984375 25.25 -22.234375 C 25.695312 -21.484375 25.921875 -20.65625 25.921875 -19.75 Z M 20.984375 -19.75 L 6.171875 -19.75 L 6.171875 -14.8125 L 20.984375 -14.8125 Z M 20.984375 -19.75 "/></g></g></g><g fill="#6f3fcf" fill-opacity="1"><g transform="translate(262.176674, 60.829613)"><g><path d="M 25.921875 -24.6875 L 25.921875 -19.75 L 6.171875 -19.75 L 6.171875 -14.8125 L 25.921875 -14.8125 L 25.921875 -9.875 L 6.171875 -9.875 L 6.171875 -4.9375 L 25.921875 -4.9375 L 25.921875 0 L 6.171875 0 C 5.265625 0 4.4375 -0.21875 3.6875 -0.65625 C 2.9375 -1.101562 2.335938 -1.703125 1.890625 -2.453125 C 1.453125 -3.203125 1.234375 -4.03125 1.234375 -4.9375 L 1.234375 -19.75 C 1.234375 -20.65625 1.453125 -21.484375 1.890625 -22.234375 C 2.335938 -22.984375 2.9375 -23.578125 3.6875 -24.015625 C 4.4375 -24.460938 5.265625 -24.6875 6.171875 -24.6875 Z M 25.921875 -24.6875 "/></g></g></g><g fill="#6f3fcf" fill-opacity="1"><g transform="translate(289.332583, 60.829613)"><g><path d="M 25.921875 -24.6875 L 25.921875 -19.75 L 6.171875 -19.75 L 6.171875 -14.8125 L 20.984375 -14.8125 C 21.890625 -14.8125 22.71875 -14.585938 23.46875 -14.140625 C 24.21875 -13.703125 24.8125 -13.109375 25.25 -12.359375 C 25.695312 -11.609375 25.921875 -10.78125 25.921875 -9.875 L 25.921875 -4.9375 C 25.921875 -4.03125 25.695312 -3.203125 25.25 -2.453125 C 24.8125 -1.703125 24.21875 -1.101562 23.46875 -0.65625 C 22.71875 -0.21875 21.890625 0 20.984375 0 L 1.234375 0 L 1.234375 -4.9375 L 20.984375 -4.9375 L 20.984375 -9.875 L 6.171875 -9.875 C 5.265625 -9.875 4.4375 -10.09375 3.6875 -10.53125 C 2.9375 -10.976562 2.335938 -11.578125 1.890625 -12.328125 C 1.453125 -13.078125 1.234375 -13.90625 1.234375 -14.8125 L 1.234375 -19.75 C 1.234375 -20.65625 1.453125 -21.484375 1.890625 -22.234375 C 2.335938 -22.984375 2.9375 -23.578125 3.6875 -24.015625 C 4.4375 -24.460938 5.265625 -24.6875 6.171875 -24.6875 Z M 25.921875 -24.6875 "/></g></g></g><g fill="#6f3fcf" fill-opacity="1"><g transform="translate(316.488492, 60.829613)"><g><path d="M 25.921875 -24.6875 L 25.921875 -19.75 L 6.171875 -19.75 L 6.171875 -14.8125 L 25.921875 -14.8125 L 25.921875 -9.875 L 6.171875 -9.875 L 6.171875 -4.9375 L 25.921875 -4.9375 L 25.921875 0 L 6.171875 0 C 5.265625 0 4.4375 -0.21875 3.6875 -0.65625 C 2.9375 -1.101562 2.335938 -1.703125 1.890625 -2.453125 C 1.453125 -3.203125 1.234375 -4.03125 1.234375 -4.9375 L 1.234375 -19.75 C 1.234375 -20.65625 1.453125 -21.484375 1.890625 -22.234375 C 2.335938 -22.984375 2.9375 -23.578125 3.6875 -24.015625 C 4.4375 -24.460938 5.265625 -24.6875 6.171875 -24.6875 Z M 25.921875 -24.6875 "/></g></g></g><g fill="#6f3fcf" fill-opacity="1"><g transform="translate(343.644401, 60.829613)"><g><path d="M 25.921875 -24.6875 L 25.921875 -19.75 L 16.046875 -19.75 L 16.046875 0 L 11.109375 0 L 11.109375 -19.75 L 1.234375 -19.75 L 1.234375 -24.6875 Z M 25.921875 -24.6875 "/></g></g></g></svg>